<?xml version="1.0" standalone="no"?>
<!DOCTYPE svg PUBLIC "-//W3C//DTD SVG 20010904//EN"
 "http://www.w3.org/TR/2001/REC-SVG-20010904/DTD/svg10.dtd">
<svg version="1.0" xmlns="http://www.w3.org/2000/svg"
 width="582.000000pt" height="582.000000pt" viewBox="0 0 582.000000 582.000000"
 preserveAspectRatio="xMidYMid meet">
<metadata>
Created by potrace 1.14, written by Peter Selinger 2001-2017
</metadata>
<g transform="translate(0.000000,582.000000) scale(0.100000,-0.100000)"
fill="#000000" stroke="none">
<path d="M2940 5801 c-8 -5 -28 -10 -45 -12 -16 -2 -38 -10 -47 -17 -10 -8
-24 -12 -32 -9 -9 4 -18 1 -22 -5 -5 -7 -2 -8 6 -3 9 5 11 4 6 -4 -4 -6 -15
-10 -24 -9 -9 2 -16 -2 -15 -9 1 -6 -4 -14 -13 -17 -10 -4 -13 -2 -8 7 4 6 -3
3 -16 -8 -14 -12 -20 -14 -15 -5 4 8 -2 5 -14 -8 -12 -12 -26 -20 -31 -17 -6
4 -7 -2 -3 -11 4 -11 3 -15 -4 -11 -6 4 -19 0 -27 -9 -9 -8 -16 -13 -16 -9 0
4 -7 -1 -16 -9 -8 -9 -21 -13 -27 -9 -7 4 -8 0 -4 -11 4 -10 3 -15 -3 -11 -6
3 -10 0 -10 -7 0 -9 -3 -9 -10 2 -8 13 -10 13 -10 -2 0 -11 -5 -15 -15 -12 -8
4 -15 1 -15 -5 0 -5 -10 -15 -21 -22 -17 -9 -20 -8 -14 3 3 7 0 5 -8 -4 -8
-10 -17 -15 -20 -11 -4 3 -7 2 -7 -4 0 -6 -11 -14 -25 -17 -16 -4 -23 -11 -19
-18 4 -6 3 -8 -3 -5 -6 4 -22 -2 -35 -13 -14 -11 -29 -16 -33 -12 -5 4 -6 0
-2 -10 4 -12 0 -15 -19 -13 -13 1 -24 -2 -24 -6 0 -5 -11 -11 -25 -15 -14 -3
-25 -10 -25 -14 0 -4 -9 -10 -21 -13 -14 -4 -18 -10 -13 -19 6 -10 4 -10 -9 1
-10 8 -17 9 -17 3 0 -10 -65 -47 -82 -47 -4 0 -14 -9 -23 -20 -9 -11 -13 -13
-9 -6 4 9 -6 6 -24 -8 -18 -12 -37 -19 -43 -15 -7 4 -9 3 -6 -3 4 -6 -5 -19
-19 -28 -15 -9 -23 -12 -20 -6 5 7 1 9 -8 5 -9 -3 -13 -10 -10 -15 3 -5 -2 -9
-11 -9 -10 0 -13 -5 -9 -12 5 -8 0 -7 -11 2 -15 12 -17 12 -10 1 6 -11 4 -13
-9 -8 -10 4 -15 3 -11 -3 3 -6 -1 -10 -10 -10 -9 0 -19 -9 -22 -20 -5 -19 -6
-20 -19 -3 -11 14 -14 14 -12 3 2 -9 -4 -14 -14 -14 -10 1 -16 -3 -15 -10 1
-6 -6 -10 -15 -10 -10 1 -18 -3 -18 -8 0 -6 -7 -8 -14 -5 -10 4 -13 1 -10 -8
4 -10 0 -13 -14 -10 -12 2 -23 -3 -26 -11 -3 -9 -11 -12 -18 -8 -8 5 -9 2 -4
-12 4 -10 4 -15 0 -11 -4 4 -13 2 -20 -3 -6 -6 -18 -9 -25 -8 -9 2 -13 -4 -11
-17 2 -15 0 -16 -6 -7 -12 18 -23 17 -34 -2 -5 -9 -18 -16 -30 -16 -13 0 -18
-5 -15 -14 4 -10 0 -14 -14 -11 -11 2 -19 -2 -19 -10 0 -9 -6 -12 -17 -8 -11
4 -14 3 -9 -5 4 -8 2 -10 -7 -6 -8 3 -17 -2 -21 -11 -3 -9 -10 -14 -15 -10 -5
3 -12 1 -16 -5 -4 -6 -11 -7 -17 -4 -7 5 -9 1 -5 -9 4 -12 2 -14 -10 -10 -11
4 -14 2 -9 -5 4 -7 -1 -10 -14 -7 -11 2 -20 0 -20 -6 0 -5 -7 -9 -15 -9 -8 0
-15 -8 -15 -17 0 -14 -2 -15 -9 -5 -7 11 -9 10 -15 -3 -3 -9 -10 -13 -16 -10
-6 3 -13 -1 -16 -9 -5 -14 -34 -29 -59 -31 -5 0 -9 -9 -8 -19 1 -13 -2 -15
-10 -7 -13 13 -31 15 -23 2 5 -8 -28 -28 -48 -29 -5 0 -13 -7 -18 -16 -5 -9
-13 -14 -19 -11 -5 4 -12 -1 -15 -10 -5 -12 -9 -13 -20 -4 -12 10 -13 8 -7 -6
5 -14 3 -17 -10 -12 -9 3 -16 3 -14 -1 1 -4 -2 -8 -6 -9 -5 -1 -15 -10 -24
-20 -8 -10 -11 -11 -7 -3 5 10 -1 8 -16 -5 -14 -12 -20 -14 -15 -5 5 8 -5 4
-22 -10 -17 -14 -28 -29 -25 -35 3 -5 -1 -4 -10 3 -14 11 -18 10 -28 -7 -6
-12 -20 -21 -31 -21 -13 0 -18 -4 -13 -12 5 -8 2 -9 -9 -5 -10 4 -16 2 -14 -5
1 -5 -7 -12 -18 -14 -11 -1 -24 -9 -30 -17 -5 -7 -23 -17 -38 -21 -15 -3 -25
-11 -22 -16 3 -6 -1 -10 -9 -10 -9 0 -16 -4 -16 -10 0 -5 -7 -7 -15 -4 -9 4
-15 0 -15 -9 0 -11 -7 -13 -22 -10 -13 3 -20 3 -16 -2 11 -12 -15 -32 -37 -28
-16 4 -17 3 -5 -6 14 -10 7 -16 -14 -12 -5 1 -6 -7 -3 -19 3 -11 0 -23 -5 -27
-7 -4 -8 -1 -4 8 4 8 0 5 -8 -5 -12 -14 -13 -23 -5 -33 9 -10 8 -17 -2 -30 -8
-9 -9 -14 -3 -10 8 4 11 -3 10 -23 0 -17 -5 -30 -11 -30 -5 0 -4 -4 4 -9 13
-8 13 -12 0 -27 -8 -10 -9 -15 -3 -11 7 4 10 -8 10 -33 0 -22 -5 -40 -11 -40
-6 0 -7 -3 0 -8 14 -10 15 -56 1 -64 -8 -6 -8 -8 1 -8 12 0 12 -47 0 -67 -4
-6 -3 -14 2 -17 5 -4 8 -18 5 -32 -3 -19 -1 -24 8 -18 10 6 9 3 -1 -9 -7 -9
-10 -17 -5 -17 5 0 2 -5 -6 -10 -8 -5 -10 -10 -4 -10 12 0 13 -78 1 -97 -4 -6
-3 -14 3 -18 10 -6 9 -32 -3 -51 -3 -6 -3 -14 0 -18 12 -12 11 -56 -1 -56 -7
0 -8 -3 -1 -8 14 -9 14 -65 0 -74 -6 -5 -5 -8 4 -8 10 0 11 -3 2 -14 -9 -10
-9 -16 -1 -21 8 -5 8 -10 0 -20 -8 -10 -8 -15 0 -20 8 -5 7 -11 -2 -23 -11
-13 -11 -14 2 -7 13 8 13 7 1 -8 -9 -12 -10 -17 -2 -17 8 0 9 -5 1 -19 -7 -14
-7 -22 0 -26 8 -5 8 -11 0 -20 -8 -10 -8 -15 0 -20 8 -5 8 -11 -1 -21 -6 -8
-7 -14 -2 -14 13 0 11 -43 -2 -52 -6 -5 -5 -8 4 -8 11 0 11 -3 1 -15 -7 -8 -8
-15 -3 -15 5 0 10 -7 10 -15 0 -8 -5 -15 -11 -15 -7 0 -7 -3 -1 -8 14 -10 15
-42 1 -42 -6 0 -5 -4 3 -9 12 -8 12 -12 2 -24 -8 -11 -9 -17 -1 -22 8 -5 8
-10 0 -20 -8 -10 -8 -15 0 -20 8 -5 8 -10 0 -20 -8 -9 -8 -15 0 -20 6 -3 7
-12 3 -18 -9 -15 -11 -47 -3 -47 4 0 7 -7 7 -15 0 -8 -5 -15 -10 -15 -5 0 -4
-7 3 -15 10 -12 10 -15 -1 -15 -12 0 -12 -2 -1 -9 17 -11 17 -21 0 -32 -10 -7
-10 -9 0 -9 10 0 10 -5 2 -20 -6 -11 -7 -20 -2 -20 5 0 9 -7 9 -15 0 -8 -5
-15 -11 -15 -7 0 -8 -3 -1 -8 14 -9 14 -65 0 -74 -6 -5 -6 -8 2 -8 12 0 10
-30 -3 -52 -4 -7 -3 -8 5 -4 8 5 10 0 7 -18 -3 -14 -7 -30 -11 -36 -3 -5 -2
-10 3 -10 5 0 9 -7 9 -15 0 -8 -5 -15 -11 -15 -7 0 -7 -3 -1 -8 14 -10 14 -72
1 -72 -6 0 -5 -4 2 -9 17 -11 17 -21 0 -32 -8 -6 -9 -9 -1 -9 12 0 12 -17 0
-36 -3 -6 -3 -14 0 -18 11 -10 11 -46 0 -46 -5 0 -4 -6 2 -14 9 -10 9 -16 1
-21 -8 -5 -8 -11 1 -21 9 -11 9 -14 -1 -14 -10 0 -10 -3 0 -15 10 -12 10 -15
-1 -15 -10 0 -11 -2 -2 -8 8 -5 9 -13 3 -22 -5 -9 -5 -19 2 -27 7 -9 7 -13 -1
-13 -8 0 -9 -6 -4 -17 10 -22 10 -44 0 -61 -5 -7 -3 -12 3 -12 7 0 8 -6 0 -19
-7 -14 -7 -22 0 -26 8 -5 8 -11 0 -20 -8 -10 -8 -15 1 -20 8 -6 8 -10 -2 -15
-9 -6 -10 -12 -1 -22 7 -9 8 -19 2 -28 -14 -21 -12 -32 3 -25 6 4 5 0 -4 -7
-14 -11 -14 -15 -2 -26 10 -10 11 -17 4 -26 -7 -9 -7 -16 1 -24 8 -8 7 -13 -5
-18 -9 -3 -14 -10 -11 -15 3 -6 0 -17 -8 -26 -9 -12 -9 -15 0 -9 9 5 11 -3 8
-34 -2 -26 1 -46 10 -55 11 -10 11 -15 1 -18 -9 -4 -9 -6 1 -6 7 -1 10 -6 7
-11 -3 -5 1 -10 9 -10 9 0 15 -3 15 -7 -3 -20 2 -34 11 -28 5 3 10 -1 10 -10
0 -9 5 -13 10 -10 6 3 13 0 16 -9 3 -8 12 -12 20 -9 9 3 14 -2 15 -13 0 -11 3
-14 6 -7 4 10 7 10 18 0 35 -31 50 -42 55 -41 17 3 40 -11 40 -25 0 -14 2 -14
10 -1 7 11 10 11 10 2 0 -7 4 -10 10 -7 5 3 10 2 10 -2 0 -5 18 -16 40 -26 22
-9 40 -22 40 -28 0 -6 6 -9 14 -6 8 3 17 -1 20 -10 4 -9 14 -13 26 -10 11 3
19 2 18 -2 -2 -21 5 -29 31 -34 16 -3 36 -13 44 -22 9 -8 21 -15 27 -15 6 0 8
-5 4 -11 -4 -7 0 -9 14 -5 13 5 22 1 26 -10 3 -9 13 -14 21 -10 8 3 14 2 14
-2 -3 -19 2 -25 11 -12 8 13 10 12 10 -4 0 -12 5 -16 16 -12 8 3 12 2 9 -4 -3
-6 3 -10 13 -10 23 0 45 -23 34 -36 -4 -4 0 -3 8 3 11 8 18 8 27 -2 6 -7 9
-17 5 -21 -4 -5 1 -2 11 6 16 11 18 11 15 -1 -2 -8 4 -13 14 -13 10 1 15 -2
12 -7 -3 -5 2 -9 11 -9 9 0 14 -4 11 -9 -4 -5 3 -7 14 -4 13 3 20 0 20 -8 0
-14 43 -39 68 -39 7 0 11 -4 8 -8 -3 -5 11 -14 30 -21 18 -7 34 -17 34 -22 0
-5 7 -9 16 -9 9 0 25 -10 35 -22 11 -12 19 -16 19 -8 0 8 8 4 19 -9 12 -14 25
-20 32 -15 8 5 9 3 4 -6 -6 -9 -4 -12 7 -8 8 4 21 -2 29 -13 7 -10 19 -19 26
-19 7 0 13 -5 13 -11 0 -5 5 -7 10 -4 6 3 13 -1 16 -10 5 -13 9 -14 15 -4 6
10 10 7 17 -10 6 -16 11 -20 16 -13 5 8 15 4 32 -13 14 -14 30 -23 35 -20 5 4
9 1 9 -5 0 -7 5 -10 12 -8 7 3 22 -6 34 -19 16 -17 24 -20 29 -12 6 8 10 7 17
-5 5 -9 14 -13 20 -10 8 5 9 1 5 -10 -6 -14 -3 -16 14 -11 15 5 19 4 15 -4 -4
-6 0 -11 8 -11 9 0 16 -5 16 -11 0 -5 4 -8 9 -4 5 3 16 -2 24 -10 9 -8 21 -15
27 -15 6 0 23 -11 37 -24 14 -13 34 -23 45 -21 12 3 16 0 12 -7 -5 -8 -1 -9
10 -5 11 4 15 3 11 -4 -4 -6 2 -13 14 -16 12 -3 21 -10 21 -17 0 -6 5 -4 10 4
9 13 10 13 11 0 1 -8 1 -19 0 -23 -1 -4 9 -3 21 4 13 6 20 8 16 4 -9 -10 31
-47 43 -39 5 3 9 0 9 -6 0 -6 5 -8 10 -5 6 3 13 -1 16 -9 3 -9 14 -16 23 -16
14 0 14 2 1 11 -13 9 -13 10 0 6 8 -2 14 -9 13 -15 -2 -6 7 -16 18 -23 17 -9
20 -8 14 3 -4 7 4 0 18 -15 17 -19 27 -24 33 -16 4 8 12 2 21 -17 7 -16 11
-20 8 -9 -6 18 -4 18 15 -3 12 -13 28 -21 36 -18 8 3 14 -1 14 -9 0 -12 42
-34 47 -24 1 2 8 -5 16 -15 8 -11 19 -16 25 -12 8 4 12 0 12 -11 0 -15 2 -16
10 -3 8 13 10 13 10 -2 0 -9 5 -20 12 -24 7 -4 8 -3 4 4 -4 7 -3 12 2 12 6 0
13 -7 16 -16 4 -9 13 -14 22 -10 8 3 12 2 9 -4 -3 -6 3 -10 14 -10 12 0 21 -4
21 -9 0 -5 14 -14 30 -21 17 -7 30 -16 30 -21 0 -5 4 -9 10 -9 5 0 7 8 4 18
-4 9 4 4 16 -13 12 -16 20 -22 16 -13 -3 10 -1 20 3 22 10 6 44 -28 36 -36 -3
-3 10 0 30 6 19 6 35 18 36 26 0 10 3 9 8 -4 7 -19 8 -19 16 0 4 10 7 23 6 27
-1 5 3 6 9 2 7 -4 7 -12 0 -26 -16 -30 -3 -23 15 9 9 15 14 19 11 10 -3 -10 0
-20 6 -24 7 -4 8 -3 4 4 -4 7 -2 12 4 12 6 0 8 5 4 11 -4 7 -1 10 7 7 8 -3 22
7 33 21 10 15 16 18 12 8 -4 -13 -2 -16 7 -10 6 4 14 8 17 8 3 0 19 9 37 20
27 16 30 21 20 34 -9 12 -9 13 0 8 7 -4 20 -3 30 2 20 11 74 25 85 23 4 -1 5
5 2 13 -5 11 -2 13 12 8 11 -4 15 -3 11 4 -4 6 0 14 9 17 8 3 12 2 9 -4 -3 -6
1 -7 9 -4 9 3 14 10 11 14 -6 10 24 22 36 14 5 -3 9 0 9 6 0 6 5 8 13 4 8 -5
7 -2 -2 9 -12 15 -12 17 3 11 9 -3 16 -1 16 5 0 6 5 11 11 11 5 0 7 -5 3 -11
-3 -6 5 -3 20 6 14 10 26 22 26 28 0 6 3 7 7 4 3 -4 12 1 20 11 8 9 12 11 8 5
-12 -25 11 -13 28 15 18 27 18 27 11 2 l-6 -25 21 27 c14 18 29 25 46 23 21
-2 23 0 13 12 -6 8 -7 13 -2 12 19 -3 35 1 30 9 -2 4 5 9 17 9 12 1 23 7 25
13 2 5 8 8 13 4 5 -3 9 0 9 6 0 7 7 10 14 7 10 -4 13 -1 10 7 -3 7 2 16 11 20
11 4 14 2 10 -7 -4 -6 0 -4 9 7 8 10 19 15 24 12 6 -3 13 1 16 10 3 9 11 12
18 8 8 -5 9 -2 5 9 -4 11 -2 14 9 10 7 -3 14 0 14 7 0 10 3 10 15 0 13 -11 14
-10 9 6 -4 10 -4 16 1 12 4 -4 14 0 22 8 8 8 19 11 25 8 7 -4 8 -2 4 4 -4 7
-2 13 3 13 6 1 16 2 21 3 6 0 15 8 20 16 9 13 11 13 20 0 8 -12 10 -10 10 10
0 20 2 22 10 10 8 -13 10 -13 10 1 0 25 44 51 61 36 8 -7 11 -8 7 -4 -3 5 1
17 10 27 12 14 19 17 29 8 9 -7 13 -7 13 1 0 7 5 9 10 6 6 -4 10 -3 9 2 -3 20
2 25 16 13 13 -11 14 -10 9 5 -5 12 -4 16 3 12 6 -4 16 0 23 8 10 12 10 15 0
15 -8 0 -11 3 -8 6 4 3 16 1 27 -6 12 -6 21 -7 20 -3 -3 20 2 27 11 13 8 -13
10 -13 10 2 0 9 5 20 12 24 7 4 8 3 4 -4 -5 -8 -2 -10 9 -6 13 5 13 9 3 22
-11 13 -11 14 0 8 9 -5 26 0 45 15 19 13 26 16 18 6 -8 -10 -9 -17 -3 -17 6 0
13 9 17 19 4 13 12 18 21 14 8 -3 14 -2 13 3 -3 20 2 26 14 16 9 -8 17 -8 27
0 12 8 12 9 -2 4 -10 -3 -18 -1 -18 5 0 5 8 12 18 15 9 3 24 9 33 14 10 5 21
5 28 -1 6 -5 9 -6 6 -3 -3 4 3 13 13 21 15 12 14 13 -8 2 l-25 -12 20 20 c15
16 23 18 34 9 11 -8 13 -8 7 2 -9 16 6 16 23 0 10 -11 10 -7 2 17 -10 28 -10
29 4 11 12 -16 15 -17 15 -4 0 9 8 19 18 23 14 5 15 4 5 -6 -7 -7 -13 -18 -13
-24 0 -5 5 -2 11 8 6 9 14 15 18 12 5 -2 17 5 27 18 l19 22 -22 -19 c-13 -11
-23 -16 -23 -11 0 4 8 14 17 21 14 9 21 10 32 1 11 -9 13 -9 8 -1 -4 7 0 17 7
23 10 8 16 9 21 1 3 -5 12 -10 18 -10 7 0 6 4 -3 10 -14 9 -13 11 10 14 6 0
15 8 20 16 9 13 10 13 10 0 1 -9 6 -5 15 10 7 14 16 24 19 23 12 -6 39 -3 33
3 -10 10 36 42 52 36 9 -3 12 -1 7 6 -5 8 -2 10 8 6 16 -6 23 10 9 19 -5 2 -3
2 4 1 17 -4 83 16 80 24 -1 4 2 7 6 7 5 0 13 8 18 17 6 10 15 18 21 18 7 0 7
-5 -1 -14 -8 -10 -9 -16 -1 -21 6 -4 10 -3 9 2 -1 4 1 16 6 26 6 14 10 15 21
6 12 -10 13 -9 8 5 -6 15 9 22 38 17 4 0 5 6 1 15 -3 9 0 14 8 12 8 -2 13 3
12 10 -4 16 14 16 20 0 3 -8 6 -6 6 4 1 12 6 15 18 11 9 -4 14 -2 11 3 -4 5 1
18 9 29 12 16 14 16 10 3 -3 -10 -2 -20 4 -23 5 -4 9 -3 8 2 -3 19 2 33 12 33
5 0 7 -6 3 -12 -4 -7 6 -1 23 15 16 15 35 27 42 27 7 0 9 5 5 12 -5 8 -2 9 9
5 10 -3 17 -2 17 2 0 5 -6 12 -12 14 -7 3 -2 6 12 7 14 1 19 4 13 7 -7 2 -13
9 -13 14 0 6 5 7 12 3 8 -5 9 -2 5 9 -3 10 -2 17 3 17 6 0 6 9 0 24 -6 17 -5
26 3 30 8 3 7 5 -2 5 -11 1 -10 5 5 17 10 8 14 13 8 10 -7 -3 -15 1 -18 10 -3
8 -2 12 3 9 5 -3 12 -1 16 5 3 5 -1 10 -9 10 -13 0 -13 4 -2 32 17 42 11 64
-12 46 -15 -11 -15 -11 -5 3 7 9 9 20 5 24 -4 5 -2 5 4 2 7 -4 14 -1 16 6 6
16 -2 38 -11 33 -9 -6 -7 31 2 40 10 10 9 26 -1 20 -5 -3 -9 1 -9 9 0 8 4 12
9 9 4 -3 8 0 8 5 0 6 -5 11 -12 11 -6 0 -3 10 8 22 19 21 19 21 0 14 -16 -5
-17 -4 -6 9 10 12 10 15 -1 16 -8 0 -5 4 6 9 11 5 15 9 8 9 -7 1 -10 11 -7 27
3 19 1 24 -8 19 -7 -4 -6 0 4 7 12 10 13 19 7 31 -6 9 -7 17 -3 17 3 0 1 7 -6
15 -11 13 -10 14 6 9 15 -6 17 -4 7 6 -7 8 -8 21 -4 34 5 11 5 30 0 41 -4 11
-8 14 -8 8 -1 -7 -6 -13 -12 -13 -6 0 -7 5 -2 13 11 17 12 87 1 93 -5 3 -1 15
9 26 9 11 13 19 8 18 -21 -5 -29 1 -16 9 13 8 13 12 0 27 -17 21 -17 17 0 37
10 13 10 17 1 17 -10 0 -10 3 -1 14 7 9 8 17 2 20 -5 3 -8 17 -6 31 1 14 -2
25 -8 25 -6 0 -2 7 9 16 10 8 14 13 8 10 -8 -4 -11 5 -9 27 1 17 -3 40 -8 51
-6 13 -6 16 2 12 6 -4 11 -3 11 3 0 5 -6 12 -12 14 -7 3 -4 6 7 7 l20 1 -20 9
c-11 5 -14 9 -7 9 6 1 12 6 12 12 0 5 -3 8 -7 6 -5 -3 -8 6 -8 19 0 17 4 23
15 19 12 -4 12 -3 -1 7 -11 10 -14 21 -8 41 5 20 4 30 -6 34 -12 4 -12 7 0 20
21 21 19 39 -2 22 -17 -13 -17 -13 -3 5 8 11 14 27 12 38 -2 10 3 18 10 18 10
0 10 2 -1 9 -8 5 -12 19 -9 35 3 14 0 27 -6 30 -7 3 -7 5 2 5 6 1 12 6 12 12
0 5 -4 7 -10 4 -5 -3 -10 -1 -10 4 0 6 8 11 18 11 14 0 14 2 3 9 -8 5 -15 21
-15 34 -1 14 2 23 6 21 10 -6 6 38 -4 53 -6 7 -4 14 3 19 8 5 9 3 4 -6 -5 -8
-4 -11 3 -6 6 4 9 13 6 21 -4 8 -11 12 -18 8 -8 -5 -8 -3 0 8 5 8 9 24 8 37 0
12 4 22 10 22 6 0 3 7 -7 14 -16 12 -16 14 -1 20 13 5 14 9 5 20 -8 10 -9 16
-1 21 6 4 7 12 0 24 -6 12 -5 22 2 29 9 9 9 12 0 12 -7 0 -12 5 -12 11 0 5 4
8 8 5 5 -3 9 1 9 9 0 8 -5 12 -10 8 -5 -3 -4 4 2 16 9 16 9 21 -1 21 -9 0 -9
3 2 10 13 9 13 11 0 20 -13 9 -13 10 0 10 9 0 11 3 5 8 -13 9 -13 35 -1 44 6
4 5 12 -3 21 -6 9 -8 18 -3 21 5 3 8 18 8 33 -1 15 2 41 6 56 6 23 5 27 -6 18
-12 -10 -12 -6 -1 26 10 29 10 40 2 45 -9 6 -8 8 1 8 7 0 10 5 7 10 -4 6 -12
8 -18 4 -7 -3 -5 0 3 8 11 10 15 34 14 93 0 44 5 86 10 94 9 12 8 13 -3 6 -11
-6 -13 -4 -7 11 13 30 13 218 1 226 -6 5 -6 8 3 8 6 0 12 5 12 11 0 5 -5 7
-11 3 -8 -5 -8 -1 0 14 9 16 5 26 -21 56 -17 20 -37 35 -44 32 -9 -3 -11 1 -7
11 4 10 2 14 -4 10 -6 -4 -14 0 -17 9 -3 8 -10 12 -16 9 -5 -3 -10 -1 -10 4 0
6 -6 11 -14 11 -8 0 -16 7 -20 15 -3 8 -12 12 -21 9 -10 -4 -15 0 -15 10 0 9
-3 15 -7 14 -14 -4 -53 13 -53 23 0 5 -7 9 -16 9 -8 0 -12 4 -9 10 3 6 -1 7
-9 4 -9 -3 -16 -1 -16 6 0 6 -4 8 -10 5 -5 -3 -10 -1 -10 4 0 6 -5 11 -11 11
-6 0 -17 7 -26 15 -8 9 -28 19 -44 22 -16 3 -29 10 -29 15 0 5 -13 14 -30 19
-16 6 -30 15 -30 21 0 5 -4 6 -10 3 -6 -3 -10 -1 -10 5 0 6 -4 8 -10 5 -5 -3
-10 -1 -10 5 0 6 -4 8 -10 5 -5 -3 -10 1 -10 11 0 11 -6 15 -20 11 -13 -3 -20
0 -20 10 0 8 -4 11 -10 8 -5 -3 -10 -2 -10 4 0 6 -7 7 -17 4 -9 -4 -14 -2 -10
3 3 6 -3 16 -15 23 -16 10 -19 10 -13 -1 3 -7 -2 -3 -13 9 -11 12 -22 20 -24
17 -3 -2 -11 2 -18 11 -7 8 -21 15 -32 15 -10 0 -16 5 -13 10 3 6 -1 10 -9 10
-9 0 -16 6 -16 13 0 8 -4 7 -10 -3 -6 -10 -10 -11 -10 -2 0 6 -6 12 -14 12 -8
0 -18 5 -22 12 -5 7 -2 8 7 3 8 -5 11 -4 6 1 -5 5 -12 9 -15 9 -4 0 -13 4 -21
9 -10 6 -12 6 -6 -3 5 -9 1 -9 -14 1 -12 7 -21 16 -21 19 0 4 -22 16 -50 28
-27 12 -50 26 -50 32 0 6 -5 7 -10 4 -6 -3 -13 0 -16 8 -2 7 -11 14 -19 15 -8
1 -21 3 -29 4 -8 1 -12 7 -9 15 4 9 0 11 -11 7 -10 -4 -18 0 -22 10 -3 9 -10
14 -14 11 -4 -3 -11 2 -14 11 -4 9 -9 14 -12 11 -3 -3 -17 1 -31 8 -15 8 -30
12 -35 9 -4 -3 -5 1 -2 9 3 8 -2 14 -11 16 -8 1 -23 2 -34 3 -12 2 -17 9 -14
23 2 11 1 15 -3 8 -3 -7 -12 -9 -20 -6 -7 3 -11 9 -8 14 3 5 -4 9 -16 9 -11 0
-23 6 -26 14 -3 8 -12 12 -20 9 -8 -3 -14 0 -14 6 0 6 -9 11 -21 11 -11 0 -17
5 -14 10 3 6 -3 10 -14 10 -12 0 -21 5 -21 10 0 6 -7 10 -15 10 -7 0 -19 8
-24 18 -6 9 -11 14 -11 9 0 -4 -13 -1 -29 7 -16 9 -32 12 -36 8 -5 -4 -5 -1
-1 6 4 7 2 12 -5 12 -6 0 -20 10 -30 22 -12 13 -19 16 -19 8 0 -9 -5 -7 -13 5
-8 10 -19 15 -25 11 -7 -4 -12 -1 -12 9 0 9 -4 13 -10 10 -5 -3 -10 -1 -10 5
0 6 -4 8 -10 5 -5 -3 -10 -1 -10 5 0 6 -4 8 -10 5 -5 -3 -10 -1 -10 4 0 6 -7
11 -16 11 -8 0 -12 5 -9 10 3 6 -3 10 -15 10 -14 0 -19 4 -14 13 4 6 3 9 -1 4
-5 -4 -15 -1 -24 7 -16 15 -20 16 -47 16 -8 0 -12 5 -9 10 3 6 -3 10 -15 10
-12 0 -18 4 -15 11 4 6 1 9 -6 8 -18 -3 -69 21 -69 33 0 4 -9 8 -20 8 -11 0
-20 4 -20 9 0 10 -61 37 -73 33 -5 -1 -11 7 -14 19 -4 15 -12 20 -28 16 -17
-3 -22 0 -17 11 4 12 -1 14 -20 10 -19 -4 -25 -1 -21 9 3 7 -2 13 -11 13 -9 0
-16 4 -16 8 0 13 -70 43 -82 36 -7 -5 -9 -1 -5 9 3 9 -1 18 -9 21 -23 9 -26 7
-18 -6 5 -9 2 -9 -9 1 -19 15 -23 26 -5 15 7 -4 8 -3 4 4 -4 7 -14 12 -22 12
-8 0 -14 6 -14 13 0 8 -4 7 -10 -3 -8 -13 -10 -12 -10 3 0 9 -5 17 -11 17 -5
0 -7 -6 -3 -12 5 -10 4 -10 -6 -1 -7 6 -19 9 -28 6 -10 -4 -13 -2 -8 5 8 14 6
14 -14 3z m645 -351 c3 -5 1 -10 -4 -10 -6 0 -11 5 -11 10 0 6 2 10 4 10 3 0
8 -4 11 -10z m1760 -3910 c3 -5 1 -10 -4 -10 -6 0 -11 5 -11 10 0 6 2 10 4 10
3 0 8 -4 11 -10z m-15 -25 c0 -2 -6 -8 -13 -14 -10 -8 -14 -7 -14 2 0 8 6 14
14 14 7 0 13 -1 13 -2z m-2145 -1234 c3 -5 2 -12 -3 -15 -5 -3 -9 1 -9 9 0 17
3 19 12 6z m-25 -27 c0 -8 -19 -13 -24 -6 -3 5 1 9 9 9 8 0 15 -2 15 -3z
m-232 -89 c-3 -3 -9 2 -12 12 -6 14 -5 15 5 6 7 -7 10 -15 7 -18z"/>
<path d="M5408 2363 c7 -3 16 -2 19 1 4 3 -2 6 -13 5 -11 0 -14 -3 -6 -6z"/>
<path d="M5410 2301 c0 -6 4 -13 10 -16 6 -3 7 1 4 9 -7 18 -14 21 -14 7z"/>
<path d="M4916 1262 c-3 -5 1 -9 9 -9 8 0 12 4 9 9 -3 4 -7 8 -9 8 -2 0 -6 -4
-9 -8z"/>
<path d="M4086 785 c-11 -8 -17 -17 -14 -20 2 -3 13 4 23 15 21 23 18 25 -9 5z"/>
<path d="M3225 289 c-4 -6 -5 -12 -2 -15 2 -3 7 2 10 11 7 17 1 20 -8 4z"/>
<path d="M2886 167 c3 -10 9 -15 12 -12 3 3 0 11 -7 18 -10 9 -11 8 -5 -6z"/>
<path d="M2975 140 c3 -5 8 -10 11 -10 2 0 4 5 4 10 0 6 -5 10 -11 10 -5 0 -7
-4 -4 -10z"/>
</g>
</svg>
