<svg width="147" height="72" viewBox="0 0 147 72" fill="none" xmlns="http://www.w3.org/2000/svg">
<path d="M34.56 35.8161C34.56 38.4721 34.224 40.8881 33.552 43.0641C32.88 45.2081 31.872 47.0641 30.528 48.6321C29.216 50.2001 27.568 51.4001 25.584 52.2321C23.632 53.0641 21.36 53.4801 18.768 53.4801C16.08 53.4801 13.744 53.0641 11.76 52.2321C9.776 51.3681 8.128 50.1681 6.816 48.6321C5.504 47.0641 4.528 45.1921 3.888 43.0161C3.248 40.8401 2.928 38.4241 2.928 35.7681C2.928 32.2481 3.504 29.1761 4.656 26.5521C5.808 23.9281 7.552 21.8801 9.888 20.4081C12.256 18.9361 15.232 18.2001 18.816 18.2001C22.24 18.2001 25.12 18.9361 27.456 20.4081C29.792 21.8481 31.552 23.8961 32.736 26.5521C33.952 29.1761 34.56 32.2641 34.56 35.8161ZM7.488 35.8161C7.488 38.6961 7.888 41.1761 8.688 43.2561C9.488 45.3361 10.72 46.9361 12.384 48.0561C14.08 49.1761 16.208 49.7361 18.768 49.7361C21.36 49.7361 23.472 49.1761 25.104 48.0561C26.768 46.9361 28 45.3361 28.8 43.2561C29.6 41.1761 30 38.6961 30 35.8161C30 31.4961 29.104 28.1201 27.312 25.6881C25.52 23.2241 22.688 21.9921 18.816 21.9921C16.224 21.9921 14.08 22.5521 12.384 23.6721C10.72 24.7601 9.488 26.3441 8.688 28.4241C7.888 30.4721 7.488 32.9361 7.488 35.8161ZM80.1296 53.0001H75.8096V37.0161H58.2416V53.0001H53.9216V18.7281H58.2416V33.2241H75.8096V18.7281H80.1296V53.0001ZM111.004 53.0001L106.876 42.3921H93.2918L89.2118 53.0001H84.8438L98.2358 18.5841H102.124L115.468 53.0001H111.004ZM101.74 28.1841C101.644 27.9281 101.484 27.4641 101.26 26.7921C101.036 26.1201 100.812 25.4321 100.588 24.7281C100.396 23.9921 100.236 23.4321 100.108 23.0481C99.9478 23.6881 99.7718 24.3441 99.5798 25.0161C99.4198 25.6561 99.2438 26.2481 99.0518 26.7921C98.8918 27.3361 98.7478 27.8001 98.6198 28.1841L94.7318 38.5521H105.58L101.74 28.1841ZM134.844 22.0401C133.02 22.0401 131.372 22.3601 129.9 23.0001C128.428 23.6081 127.18 24.5201 126.156 25.7361C125.132 26.9201 124.348 28.3761 123.804 30.1041C123.26 31.8001 122.988 33.7201 122.988 35.8641C122.988 38.6801 123.42 41.1281 124.284 43.2081C125.18 45.2881 126.492 46.8881 128.22 48.0081C129.98 49.1281 132.172 49.6881 134.796 49.6881C136.3 49.6881 137.724 49.5601 139.068 49.3041C140.412 49.0481 141.724 48.7281 143.004 48.3441V52.0881C141.724 52.5681 140.396 52.9201 139.02 53.1441C137.676 53.3681 136.06 53.4801 134.172 53.4801C130.684 53.4801 127.772 52.7601 125.436 51.3201C123.1 49.8801 121.34 47.8321 120.156 45.1761C119.004 42.5201 118.428 39.4001 118.428 35.8161C118.428 33.2241 118.78 30.8561 119.484 28.7121C120.22 26.5681 121.276 24.7121 122.652 23.1441C124.06 21.5761 125.788 20.3761 127.836 19.5441C129.884 18.6801 132.236 18.2481 134.892 18.2481C136.652 18.2481 138.348 18.4241 139.98 18.7761C141.612 19.1281 143.068 19.6241 144.348 20.2641L142.62 23.9121C141.564 23.4321 140.38 23.0001 139.068 22.6161C137.788 22.2321 136.38 22.0401 134.844 22.0401Z" fill="url(#paint0_linear_171_57)"/>
<line x1="0.00684915" y1="70.0001" x2="146.007" y2="71.0001" stroke="url(#paint1_linear_171_57)" stroke-width="2"/>
<defs>
<linearGradient id="paint0_linear_171_57" x1="21.1394" y1="33.0001" x2="99.6814" y2="40.4009" gradientUnits="userSpaceOnUse">
<stop stop-color="#FF4040"/>
<stop offset="1" stop-color="#A20BD8"/>
</linearGradient>
<linearGradient id="paint1_linear_171_57" x1="21.136" y1="71.6449" x2="23.048" y2="84.0787" gradientUnits="userSpaceOnUse">
<stop stop-color="#FF4040"/>
<stop offset="1" stop-color="#A20BD8"/>
</linearGradient>
</defs>
</svg>
