<svg width="310" height="130" viewBox="0 0 310 130" fill="none" xmlns="http://www.w3.org/2000/svg">
<g filter="url(#filter0_d_170_34)">
<path d="M30 46C30 37.1634 37.1634 30 46 30H264C272.837 30 280 37.1634 280 46V84C280 92.8366 272.837 100 264 100H46C37.1634 100 30 92.8366 30 84V46Z" fill="url(#paint0_linear_170_34)"/>
</g>
<path d="M94.04 64.544C94.04 66.3147 93.816 67.9253 93.368 69.376C92.92 70.8053 92.248 72.0427 91.352 73.088C90.4773 74.1333 89.3787 74.9333 88.056 75.488C86.7547 76.0427 85.24 76.32 83.512 76.32C81.72 76.32 80.1627 76.0427 78.84 75.488C77.5173 74.912 76.4187 74.112 75.544 73.088C74.6693 72.0427 74.0187 70.7947 73.592 69.344C73.1653 67.8933 72.952 66.2827 72.952 64.512C72.952 62.1653 73.336 60.1173 74.104 58.368C74.872 56.6187 76.0347 55.2533 77.592 54.272C79.1707 53.2907 81.1547 52.8 83.544 52.8C85.8267 52.8 87.7467 53.2907 89.304 54.272C90.8613 55.232 92.0347 56.5973 92.824 58.368C93.6347 60.1173 94.04 62.176 94.04 64.544ZM75.992 64.544C75.992 66.464 76.2587 68.1173 76.792 69.504C77.3253 70.8907 78.1467 71.9573 79.256 72.704C80.3867 73.4507 81.8053 73.824 83.512 73.824C85.24 73.824 86.648 73.4507 87.736 72.704C88.8453 71.9573 89.6667 70.8907 90.2 69.504C90.7333 68.1173 91 66.464 91 64.544C91 61.664 90.4027 59.4133 89.208 57.792C88.0133 56.1493 86.1253 55.328 83.544 55.328C81.816 55.328 80.3867 55.7013 79.256 56.448C78.1467 57.1733 77.3253 58.2293 76.792 59.616C76.2587 60.9813 75.992 62.624 75.992 64.544ZM109.85 58.848V65.984H119.162V58.848H121.978V76H119.162V68.352H109.85V76H107.034V58.848H109.85ZM133.265 58.56C135.355 58.56 136.902 59.0187 137.905 59.936C138.907 60.8533 139.409 62.3147 139.409 64.32V76H137.361L136.817 73.568H136.689C136.198 74.1867 135.686 74.7093 135.153 75.136C134.641 75.5413 134.043 75.84 133.361 76.032C132.699 76.224 131.889 76.32 130.929 76.32C129.905 76.32 128.977 76.1387 128.145 75.776C127.334 75.4133 126.694 74.8587 126.225 74.112C125.755 73.344 125.521 72.384 125.521 71.232C125.521 69.5253 126.193 68.2133 127.537 67.296C128.881 66.3573 130.95 65.8453 133.745 65.76L136.657 65.664V64.64C136.657 63.2107 136.347 62.2187 135.729 61.664C135.11 61.1093 134.235 60.832 133.105 60.832C132.209 60.832 131.355 60.9707 130.545 61.248C129.734 61.504 128.977 61.8027 128.273 62.144L127.409 60.032C128.155 59.6267 129.041 59.2853 130.065 59.008C131.089 58.7093 132.155 58.56 133.265 58.56ZM134.097 67.712C131.963 67.7973 130.481 68.1387 129.649 68.736C128.838 69.3333 128.433 70.176 128.433 71.264C128.433 72.224 128.721 72.928 129.297 73.376C129.894 73.824 130.651 74.048 131.569 74.048C133.019 74.048 134.225 73.6533 135.185 72.864C136.145 72.0533 136.625 70.816 136.625 69.152V67.616L134.097 67.712ZM150.946 76.32C149.432 76.32 148.077 76.0107 146.882 75.392C145.709 74.7733 144.781 73.8133 144.098 72.512C143.437 71.2107 143.106 69.5467 143.106 67.52C143.106 65.408 143.458 63.6907 144.162 62.368C144.866 61.0453 145.816 60.0747 147.01 59.456C148.226 58.8373 149.602 58.528 151.138 58.528C152.013 58.528 152.856 58.624 153.666 58.816C154.477 58.9867 155.138 59.2 155.65 59.456L154.786 61.792C154.274 61.6 153.677 61.4187 152.994 61.248C152.312 61.0773 151.672 60.992 151.074 60.992C149.922 60.992 148.973 61.2373 148.226 61.728C147.48 62.2187 146.925 62.944 146.562 63.904C146.2 64.864 146.018 66.0587 146.018 67.488C146.018 68.8533 146.2 70.016 146.562 70.976C146.925 71.936 147.469 72.6613 148.194 73.152C148.92 73.6427 149.826 73.888 150.914 73.888C151.853 73.888 152.674 73.792 153.378 73.6C154.104 73.408 154.765 73.1733 155.362 72.896V75.392C154.786 75.6907 154.146 75.9147 153.442 76.064C152.76 76.2347 151.928 76.32 150.946 76.32Z" fill="white"/>
<path d="M240.061 66.0607C240.646 65.4749 240.646 64.5251 240.061 63.9393L230.515 54.3934C229.929 53.8076 228.979 53.8076 228.393 54.3934C227.808 54.9792 227.808 55.9289 228.393 56.5147L236.879 65L228.393 73.4853C227.808 74.0711 227.808 75.0208 228.393 75.6066C228.979 76.1924 229.929 76.1924 230.515 75.6066L240.061 66.0607ZM178 66.5H239V63.5H178V66.5Z" fill="white"/>
<defs>
<filter id="filter0_d_170_34" x="0" y="0" width="310" height="130" filterUnits="userSpaceOnUse" color-interpolation-filters="sRGB">
<feFlood flood-opacity="0" result="BackgroundImageFix"/>
<feColorMatrix in="SourceAlpha" type="matrix" values="0 0 0 0 0 0 0 0 0 0 0 0 0 0 0 0 0 0 127 0" result="hardAlpha"/>
<feOffset/>
<feGaussianBlur stdDeviation="15"/>
<feComposite in2="hardAlpha" operator="out"/>
<feColorMatrix type="matrix" values="0 0 0 0 0.98 0 0 0 0 0 0 0 0 0 1 0 0 0 0.25 0"/>
<feBlend mode="normal" in2="BackgroundImageFix" result="effect1_dropShadow_170_34"/>
<feBlend mode="normal" in="SourceGraphic" in2="effect1_dropShadow_170_34" result="shape"/>
</filter>
<linearGradient id="paint0_linear_170_34" x1="66.1976" y1="65" x2="198.812" y2="85.1744" gradientUnits="userSpaceOnUse">
<stop stop-color="#FF4040"/>
<stop offset="1" stop-color="#A20BD8"/>
</linearGradient>
</defs>
</svg>
