<svg width="503" height="76" viewBox="0 0 503 76" fill="none" xmlns="http://www.w3.org/2000/svg">
<line x1="173" y1="75" x2="330" y2="75" stroke="url(#paint0_linear_189_69)" stroke-width="2"/>
<path d="M13.728 18.728C18.208 18.728 21.472 19.608 23.52 21.368C25.568 23.128 26.592 25.608 26.592 28.808C26.592 30.216 26.352 31.576 25.872 32.888C25.424 34.168 24.672 35.32 23.616 36.344C22.56 37.368 21.152 38.184 19.392 38.792C17.632 39.368 15.472 39.656 12.912 39.656H8.976V53H4.656V18.728H13.728ZM13.344 22.424H8.976V35.96H12.432C14.608 35.96 16.416 35.736 17.856 35.288C19.296 34.808 20.368 34.056 21.072 33.032C21.776 32.008 22.128 30.664 22.128 29C22.128 26.792 21.424 25.144 20.016 24.056C18.608 22.968 16.384 22.424 13.344 22.424ZM43.0785 26.792C45.2865 26.792 47.1745 27.272 48.7425 28.232C50.3425 29.192 51.5585 30.552 52.3905 32.312C53.2545 34.04 53.6865 36.072 53.6865 38.408V40.952H36.0705C36.1345 43.864 36.8705 46.088 38.2785 47.624C39.7185 49.128 41.7185 49.88 44.2785 49.88C45.9105 49.88 47.3505 49.736 48.5985 49.448C49.8785 49.128 51.1905 48.68 52.5345 48.104V51.8C51.2225 52.376 49.9265 52.792 48.6465 53.048C47.3665 53.336 45.8465 53.48 44.0865 53.48C41.6545 53.48 39.4945 52.984 37.6065 51.992C35.7505 51 34.2945 49.528 33.2385 47.576C32.2145 45.592 31.7025 43.176 31.7025 40.328C31.7025 37.512 32.1665 35.096 33.0945 33.08C34.0545 31.064 35.3825 29.512 37.0785 28.424C38.8065 27.336 40.8065 26.792 43.0785 26.792ZM43.0305 30.248C41.0145 30.248 39.4145 30.904 38.2305 32.216C37.0785 33.496 36.3905 35.288 36.1665 37.592H49.2705C49.2705 36.12 49.0465 34.84 48.5985 33.752C48.1505 32.664 47.4625 31.816 46.5345 31.208C45.6385 30.568 44.4705 30.248 43.0305 30.248ZM67.0043 26.792C68.9563 26.792 70.6523 27.064 72.0923 27.608C73.5323 28.12 74.6523 28.888 75.4523 29.912C76.2523 30.904 76.6523 32.12 76.6523 33.56C76.6523 35.128 76.2203 36.376 75.3563 37.304C74.4923 38.2 73.3083 38.856 71.8043 39.272V39.464C72.8283 39.752 73.7723 40.152 74.6363 40.664C75.5003 41.176 76.1883 41.848 76.7003 42.68C77.2443 43.512 77.5163 44.584 77.5163 45.896C77.5163 47.304 77.1163 48.584 76.3163 49.736C75.5483 50.888 74.3483 51.8 72.7163 52.472C71.1163 53.144 69.0523 53.48 66.5243 53.48C65.3083 53.48 64.1403 53.416 63.0203 53.288C61.9323 53.16 60.9403 52.968 60.0443 52.712C59.1803 52.456 58.4123 52.152 57.7402 51.8V48.008C58.8283 48.52 60.1083 48.984 61.5803 49.4C63.0843 49.816 64.7163 50.024 66.4763 50.024C67.7563 50.024 68.9083 49.88 69.9323 49.592C70.9883 49.304 71.8203 48.856 72.4283 48.248C73.0363 47.608 73.3403 46.744 73.3403 45.656C73.3403 44.664 73.0683 43.864 72.5243 43.256C71.9803 42.616 71.1643 42.136 70.0763 41.816C69.0203 41.496 67.6603 41.336 65.9963 41.336H62.5403V37.88H65.3243C67.5323 37.88 69.2923 37.592 70.6043 37.016C71.9483 36.408 72.6203 35.384 72.6203 33.944C72.6203 32.728 72.1083 31.816 71.0843 31.208C70.0923 30.6 68.6523 30.296 66.7643 30.296C65.3563 30.296 64.1083 30.44 63.0203 30.728C61.9643 30.984 60.7963 31.384 59.5163 31.928L58.0283 28.568C59.4043 27.96 60.8443 27.512 62.3483 27.224C63.8523 26.936 65.4043 26.792 67.0043 26.792ZM79.7355 27.272H84.2475L89.8155 41.912C90.1355 42.776 90.4235 43.608 90.6795 44.408C90.9675 45.208 91.2235 45.992 91.4475 46.76C91.6715 47.496 91.8475 48.216 91.9755 48.92H92.1675C92.3595 48.12 92.6635 47.08 93.0795 45.8C93.4955 44.488 93.9275 43.176 94.3755 41.864L99.6075 27.272H104.168L93.0795 56.552C92.4715 58.152 91.7515 59.544 90.9195 60.728C90.1195 61.944 89.1275 62.872 87.9435 63.512C86.7915 64.184 85.3835 64.52 83.7195 64.52C82.9515 64.52 82.2795 64.472 81.7035 64.376C81.1275 64.312 80.6315 64.232 80.2155 64.136V60.776C80.5675 60.84 80.9835 60.904 81.4635 60.968C81.9755 61.032 82.5035 61.064 83.0475 61.064C84.0395 61.064 84.8875 60.872 85.5915 60.488C86.3275 60.136 86.9515 59.608 87.4635 58.904C87.9755 58.232 88.4075 57.432 88.7595 56.504L90.1035 53.096L79.7355 27.272ZM126.883 53H122.611V30.776H115.027C114.707 34.84 114.307 38.312 113.827 41.192C113.347 44.04 112.739 46.36 112.003 48.152C111.267 49.944 110.387 51.256 109.363 52.088C108.339 52.92 107.139 53.336 105.763 53.336C105.347 53.336 104.931 53.304 104.515 53.24C104.131 53.208 103.811 53.128 103.555 53V49.832C103.747 49.896 103.955 49.944 104.179 49.976C104.403 50.008 104.627 50.024 104.851 50.024C105.555 50.024 106.195 49.736 106.771 49.16C107.347 48.584 107.859 47.704 108.307 46.52C108.787 45.336 109.219 43.848 109.603 42.056C109.987 40.232 110.323 38.088 110.611 35.624C110.899 33.16 111.155 30.376 111.379 27.272H126.883V53ZM146.905 37.832C149.145 37.832 151.001 38.104 152.473 38.648C153.945 39.192 155.049 40.008 155.785 41.096C156.553 42.152 156.937 43.496 156.937 45.128C156.937 46.728 156.569 48.12 155.833 49.304C155.129 50.488 154.025 51.4 152.521 52.04C151.017 52.68 149.081 53 146.713 53H135.049V27.272H139.273V37.832H146.905ZM152.713 45.368C152.713 43.8 152.153 42.744 151.033 42.2C149.945 41.624 148.409 41.336 146.425 41.336H139.273V49.592H146.521C148.313 49.592 149.785 49.272 150.937 48.632C152.121 47.992 152.713 46.904 152.713 45.368ZM178.918 30.824H170.518V53H166.342V30.824H158.038V27.272H178.918V30.824ZM193.73 26.84C196.866 26.84 199.186 27.528 200.69 28.904C202.194 30.28 202.946 32.472 202.946 35.48V53H199.874L199.058 49.352H198.866C198.13 50.28 197.362 51.064 196.562 51.704C195.794 52.312 194.898 52.76 193.874 53.048C192.882 53.336 191.666 53.48 190.226 53.48C188.69 53.48 187.298 53.208 186.05 52.664C184.834 52.12 183.874 51.288 183.17 50.168C182.466 49.016 182.114 47.576 182.114 45.848C182.114 43.288 183.122 41.32 185.138 39.944C187.154 38.536 190.258 37.768 194.45 37.64L198.818 37.496V35.96C198.818 33.816 198.354 32.328 197.426 31.496C196.498 30.664 195.186 30.248 193.49 30.248C192.146 30.248 190.866 30.456 189.65 30.872C188.434 31.256 187.298 31.704 186.242 32.216L184.946 29.048C186.066 28.44 187.394 27.928 188.93 27.512C190.466 27.064 192.066 26.84 193.73 26.84ZM194.978 40.568C191.778 40.696 189.554 41.208 188.306 42.104C187.09 43 186.482 44.264 186.482 45.896C186.482 47.336 186.914 48.392 187.778 49.064C188.674 49.736 189.81 50.072 191.186 50.072C193.362 50.072 195.17 49.48 196.61 48.296C198.05 47.08 198.77 45.224 198.77 42.728V40.424L194.978 40.568ZM228.653 30.824H220.253V53H216.077V30.824H207.773V27.272H228.653V30.824ZM233.721 53V27.272H237.945V37.832H244.617C246.857 37.832 248.697 38.104 250.137 38.648C251.577 39.192 252.649 40.008 253.353 41.096C254.057 42.152 254.409 43.496 254.409 45.128C254.409 46.728 254.057 48.12 253.353 49.304C252.681 50.488 251.609 51.4 250.137 52.04C248.697 52.68 246.793 53 244.425 53H233.721ZM244.041 49.592C245.865 49.592 247.353 49.288 248.505 48.68C249.657 48.04 250.233 46.936 250.233 45.368C250.233 43.8 249.705 42.744 248.649 42.2C247.593 41.624 246.073 41.336 244.089 41.336H237.945V49.592H244.041ZM258.681 53V27.272H262.905V53H258.681ZM278.814 27.272H283.326L288.894 41.912C289.214 42.776 289.502 43.608 289.758 44.408C290.046 45.208 290.302 45.992 290.526 46.76C290.75 47.496 290.926 48.216 291.054 48.92H291.246C291.438 48.12 291.742 47.08 292.158 45.8C292.574 44.488 293.006 43.176 293.454 41.864L298.686 27.272H303.246L292.158 56.552C291.55 58.152 290.83 59.544 289.998 60.728C289.198 61.944 288.206 62.872 287.022 63.512C285.87 64.184 284.462 64.52 282.798 64.52C282.03 64.52 281.358 64.472 280.782 64.376C280.206 64.312 279.71 64.232 279.294 64.136V60.776C279.646 60.84 280.062 60.904 280.542 60.968C281.054 61.032 281.582 61.064 282.126 61.064C283.118 61.064 283.966 60.872 284.67 60.488C285.406 60.136 286.03 59.608 286.542 58.904C287.054 58.232 287.486 57.432 287.838 56.504L289.182 53.096L278.814 27.272ZM311.01 36.632C311.01 38.136 311.426 39.256 312.258 39.992C313.122 40.696 314.354 41.048 315.954 41.048C317.554 41.048 319.01 40.808 320.322 40.328C321.634 39.816 322.978 39.144 324.354 38.312V27.272H328.578V53H324.354V41.528C322.914 42.456 321.49 43.192 320.082 43.736C318.706 44.248 317.042 44.504 315.09 44.504C312.466 44.504 310.418 43.816 308.946 42.44C307.506 41.064 306.786 39.224 306.786 36.92V27.272H311.01V36.632ZM346.688 26.792C348.896 26.792 350.784 27.272 352.352 28.232C353.952 29.192 355.168 30.552 356 32.312C356.864 34.04 357.296 36.072 357.296 38.408V40.952H339.68C339.744 43.864 340.48 46.088 341.888 47.624C343.328 49.128 345.328 49.88 347.888 49.88C349.52 49.88 350.96 49.736 352.208 49.448C353.488 49.128 354.8 48.68 356.144 48.104V51.8C354.832 52.376 353.536 52.792 352.256 53.048C350.976 53.336 349.456 53.48 347.696 53.48C345.264 53.48 343.104 52.984 341.216 51.992C339.36 51 337.904 49.528 336.848 47.576C335.824 45.592 335.312 43.176 335.312 40.328C335.312 37.512 335.776 35.096 336.704 33.08C337.664 31.064 338.992 29.512 340.688 28.424C342.416 27.336 344.416 26.792 346.688 26.792ZM346.64 30.248C344.624 30.248 343.024 30.904 341.84 32.216C340.688 33.496 340 35.288 339.776 37.592H352.88C352.88 36.12 352.656 34.84 352.208 33.752C351.76 32.664 351.072 31.816 350.144 31.208C349.248 30.568 348.08 30.248 346.64 30.248ZM368.07 27.272V37.976H382.038V27.272H386.262V53H382.038V41.528H368.07V53H363.846V27.272H368.07ZM398.392 42.968C398.392 43.256 398.376 43.672 398.344 44.216C398.344 44.728 398.328 45.288 398.296 45.896C398.264 46.472 398.232 47.032 398.2 47.576C398.168 48.088 398.136 48.504 398.104 48.824L411.88 27.272H417.064V53H413.128V37.832C413.128 37.32 413.128 36.648 413.128 35.816C413.16 34.984 413.192 34.168 413.224 33.368C413.256 32.536 413.288 31.912 413.32 31.496L399.64 53H394.408V27.272H398.392V42.968ZM440.468 27.272H445.076L434.084 39.656L445.988 53H441.092L429.476 39.944V53H425.252V27.272H429.476V39.752L440.468 27.272ZM472.089 40.088C472.089 42.232 471.801 44.136 471.225 45.8C470.681 47.432 469.881 48.824 468.825 49.976C467.801 51.128 466.537 52.008 465.033 52.616C463.561 53.192 461.913 53.48 460.089 53.48C458.393 53.48 456.825 53.192 455.385 52.616C453.945 52.008 452.697 51.128 451.641 49.976C450.585 48.824 449.753 47.432 449.145 45.8C448.569 44.136 448.281 42.232 448.281 40.088C448.281 37.24 448.761 34.84 449.721 32.888C450.681 30.904 452.057 29.4 453.849 28.376C455.641 27.32 457.769 26.792 460.233 26.792C462.569 26.792 464.617 27.32 466.377 28.376C468.169 29.4 469.561 30.904 470.553 32.888C471.577 34.84 472.089 37.24 472.089 40.088ZM452.649 40.088C452.649 42.104 452.905 43.864 453.417 45.368C453.961 46.84 454.793 47.976 455.913 48.776C457.033 49.576 458.457 49.976 460.185 49.976C461.913 49.976 463.337 49.576 464.457 48.776C465.577 47.976 466.393 46.84 466.905 45.368C467.449 43.864 467.721 42.104 467.721 40.088C467.721 38.04 467.449 36.296 466.905 34.856C466.361 33.416 465.529 32.312 464.409 31.544C463.321 30.744 461.897 30.344 460.137 30.344C457.513 30.344 455.609 31.208 454.425 32.936C453.241 34.664 452.649 37.048 452.649 40.088ZM499.471 33.752C499.471 35.352 498.991 36.6 498.031 37.496C497.071 38.392 495.839 39 494.335 39.32V39.512C495.935 39.736 497.327 40.312 498.511 41.24C499.695 42.136 500.287 43.544 500.287 45.464C500.287 46.552 500.079 47.56 499.663 48.488C499.279 49.416 498.671 50.216 497.839 50.888C497.007 51.56 495.935 52.088 494.623 52.472C493.311 52.824 491.727 53 489.871 53H478.783V27.272H489.823C491.647 27.272 493.279 27.48 494.719 27.896C496.191 28.28 497.343 28.952 498.175 29.912C499.039 30.84 499.471 32.12 499.471 33.752ZM495.919 45.464C495.919 43.992 495.359 42.936 494.239 42.296C493.119 41.656 491.471 41.336 489.295 41.336H483.007V49.592H489.391C491.503 49.592 493.119 49.288 494.239 48.68C495.359 48.04 495.919 46.968 495.919 45.464ZM495.199 34.28C495.199 33.064 494.751 32.184 493.855 31.64C492.991 31.064 491.567 30.776 489.583 30.776H483.007V37.832H488.815C490.895 37.832 492.479 37.544 493.567 36.968C494.655 36.392 495.199 35.496 495.199 34.28Z" fill="url(#paint1_linear_189_69)"/>
<defs>
<linearGradient id="paint0_linear_189_69" x1="195.732" y1="76.5" x2="197.596" y2="88.9629" gradientUnits="userSpaceOnUse">
<stop stop-color="#FF4040"/>
<stop offset="1" stop-color="#A20BD8"/>
</linearGradient>
<linearGradient id="paint1_linear_189_69" x1="72.8295" y1="33" x2="319.799" y2="113.174" gradientUnits="userSpaceOnUse">
<stop stop-color="#FF4040"/>
<stop offset="1" stop-color="#A20BD8"/>
</linearGradient>
</defs>
</svg>
