<svg width="53" height="53" viewBox="0 0 53 53" fill="none" xmlns="http://www.w3.org/2000/svg">
<path d="M47.2031 26.5C47.2031 27.1589 46.9414 27.7908 46.4755 28.2567C46.0096 28.7226 45.3776 28.9844 44.7188 28.9844H28.9844V44.7188C28.9844 45.3776 28.7226 46.0096 28.2567 46.4755C27.7908 46.9414 27.1589 47.2031 26.5 47.2031C25.8411 47.2031 25.2092 46.9414 24.7433 46.4755C24.2774 46.0096 24.0156 45.3776 24.0156 44.7188V28.9844H8.28125C7.62235 28.9844 6.99044 28.7226 6.52453 28.2567C6.05862 27.7908 5.79688 27.1589 5.79688 26.5C5.79688 25.8411 6.05862 25.2092 6.52453 24.7433C6.99044 24.2774 7.62235 24.0156 8.28125 24.0156H24.0156V8.28125C24.0156 7.62235 24.2774 6.99044 24.7433 6.52453C25.2092 6.05862 25.8411 5.79688 26.5 5.79688C27.1589 5.79688 27.7908 6.05862 28.2567 6.52453C28.7226 6.99044 28.9844 7.62235 28.9844 8.28125V24.0156H44.7188C45.3776 24.0156 46.0096 24.2774 46.4755 24.7433C46.9414 25.2092 47.2031 25.8411 47.2031 26.5Z" fill="#FF57FF"/>
</svg>
