<svg width="244" height="36" viewBox="0 0 244 36" fill="none" xmlns="http://www.w3.org/2000/svg">
<path d="M31.7872 17.816C31.7872 20.472 31.4512 22.888 30.7792 25.064C30.1072 27.208 29.0992 29.064 27.7552 30.632C26.4432 32.2 24.7952 33.4 22.8112 34.232C20.8592 35.064 18.5872 35.48 15.9952 35.48C13.3072 35.48 10.9712 35.064 8.98719 34.232C7.00319 33.368 5.35519 32.168 4.04319 30.632C2.73119 29.064 1.75519 27.192 1.11519 25.016C0.475188 22.84 0.155188 20.424 0.155188 17.768C0.155188 14.248 0.731188 11.176 1.88319 8.552C3.03519 5.928 4.77919 3.88 7.11519 2.408C9.48319 0.935999 12.4592 0.199999 16.0432 0.199999C19.4672 0.199999 22.3472 0.935999 24.6832 2.408C27.0192 3.848 28.7792 5.896 29.9632 8.552C31.1792 11.176 31.7872 14.264 31.7872 17.816ZM4.71519 17.816C4.71519 20.696 5.11519 23.176 5.91519 25.256C6.71519 27.336 7.94719 28.936 9.61119 30.056C11.3072 31.176 13.4352 31.736 15.9952 31.736C18.5872 31.736 20.6992 31.176 22.3312 30.056C23.9952 28.936 25.2272 27.336 26.0272 25.256C26.8272 23.176 27.2272 20.696 27.2272 17.816C27.2272 13.496 26.3312 10.12 24.5392 7.688C22.7472 5.224 19.9152 3.992 16.0432 3.992C13.4512 3.992 11.3072 4.552 9.61119 5.672C7.94719 6.76 6.71519 8.344 5.91519 10.424C5.11519 12.472 4.71519 14.936 4.71519 17.816ZM38.4232 35V0.727998H58.7752V4.52H42.7432V15.224H47.8312C51.2552 15.224 53.9112 15.656 55.7992 16.52C57.6872 17.352 58.9992 18.504 59.7352 19.976C60.4712 21.416 60.8392 23.08 60.8392 24.968C60.8392 27.048 60.4232 28.84 59.5912 30.344C58.7912 31.848 57.4792 33 55.6552 33.8C53.8312 34.6 51.4312 35 48.4552 35H38.4232ZM48.0232 31.304C51.0952 31.304 53.2552 30.792 54.5032 29.768C55.7512 28.712 56.3752 27.112 56.3752 24.968C56.3752 23.496 56.0712 22.328 55.4632 21.464C54.8872 20.568 53.9272 19.928 52.5832 19.544C51.2712 19.16 49.5112 18.968 47.3032 18.968H42.7432V31.304H48.0232ZM81.3464 25.256C80.3224 27.528 79.2824 29.432 78.2264 30.968C77.2024 32.472 75.9864 33.608 74.5784 34.376C73.1704 35.112 71.3784 35.48 69.2024 35.48C68.3064 35.48 67.4584 35.416 66.6584 35.288C65.8904 35.16 65.1864 34.984 64.5464 34.76V30.488C65.1864 30.776 65.8744 31.016 66.6104 31.208C67.3464 31.368 68.1144 31.448 68.9144 31.448C70.0984 31.448 71.1064 31.288 71.9384 30.968C72.8024 30.616 73.5544 30.056 74.1944 29.288C74.8664 28.52 75.4904 27.496 76.0664 26.216L62.8664 0.727998H67.6184L77.1704 19.592C77.2984 19.816 77.4264 20.088 77.5544 20.408C77.6824 20.696 77.8104 21 77.9384 21.32C78.0984 21.64 78.2264 21.944 78.3224 22.232H78.5144C78.6104 22.008 78.7064 21.752 78.8024 21.464C78.9304 21.144 79.0424 20.84 79.1384 20.552C79.2664 20.232 79.3784 19.96 79.4744 19.736L87.7304 0.727998H92.2904L81.3464 25.256ZM120.18 35H115.86V20.936C114.004 21.576 112.26 22.104 110.628 22.52C109.028 22.904 107.236 23.096 105.252 23.096C102.052 23.096 99.5716 22.36 97.8116 20.888C96.0516 19.384 95.1716 17.224 95.1716 14.408V0.727998H99.4916V13.784C99.4916 15.64 99.9716 17.032 100.932 17.96C101.924 18.856 103.508 19.304 105.684 19.304C107.572 19.304 109.268 19.128 110.772 18.776C112.276 18.424 113.972 17.944 115.86 17.336V0.727998H120.18V35ZM147.695 35H128.543V0.727998H147.695V4.52H132.863V15.224H146.831V18.968H132.863V31.208H147.695V35ZM180.463 35H176.143V19.016H158.575V35H154.255V0.727998H158.575V15.224H176.143V0.727998H180.463V35ZM188.921 0.727998H192.953V19.544C192.953 20.344 192.937 21.224 192.905 22.184C192.905 23.112 192.889 24.04 192.857 24.968C192.825 25.896 192.777 26.728 192.713 27.464C192.681 28.168 192.649 28.712 192.617 29.096H192.809L211.673 0.727998H216.473V35H212.441V16.376C212.441 15.512 212.457 14.584 212.489 13.592C212.521 12.568 212.553 11.592 212.585 10.664C212.649 9.704 212.697 8.856 212.729 8.12C212.761 7.384 212.793 6.84 212.825 6.488H212.633L193.721 35H188.921V0.727998ZM243.909 35H224.757V0.727998H243.909V4.52H229.077V15.224H243.045V18.968H229.077V31.208H243.909V35Z" fill="url(#paint0_linear_170_54)"/>
<defs>
<linearGradient id="paint0_linear_170_54" x1="33.1976" y1="18" x2="164.457" y2="42.0995" gradientUnits="userSpaceOnUse">
<stop stop-color="#FF4040"/>
<stop offset="1" stop-color="#A20BD8"/>
</linearGradient>
</defs>
</svg>
