<svg width="589" height="36" viewBox="0 0 589 36" fill="none" xmlns="http://www.w3.org/2000/svg">
<path d="M0.704 0.727998H4.736V19.544C4.736 20.344 4.72 21.224 4.688 22.184C4.688 23.112 4.672 24.04 4.64 24.968C4.608 25.896 4.56 26.728 4.496 27.464C4.464 28.168 4.432 28.712 4.4 29.096H4.592L23.456 0.727998H28.256V35H24.224V16.376C24.224 15.512 24.24 14.584 24.272 13.592C24.304 12.568 24.336 11.592 24.368 10.664C24.432 9.704 24.48 8.856 24.512 8.12C24.544 7.384 24.576 6.84 24.608 6.488H24.416L5.504 35H0.704V0.727998ZM79.8744 17.816C79.8744 20.472 79.5384 22.888 78.8664 25.064C78.1944 27.208 77.1864 29.064 75.8424 30.632C74.5304 32.2 72.8824 33.4 70.8984 34.232C68.9464 35.064 66.6744 35.48 64.0824 35.48C61.3944 35.48 59.0584 35.064 57.0744 34.232C55.0904 33.368 53.4424 32.168 52.1304 30.632C50.8184 29.064 49.8424 27.192 49.2024 25.016C48.5624 22.84 48.2424 20.424 48.2424 17.768C48.2424 14.248 48.8184 11.176 49.9704 8.552C51.1224 5.928 52.8664 3.88 55.2024 2.408C57.5704 0.935999 60.5464 0.199999 64.1304 0.199999C67.5544 0.199999 70.4344 0.935999 72.7704 2.408C75.1064 3.848 76.8664 5.896 78.0504 8.552C79.2664 11.176 79.8744 14.264 79.8744 17.816ZM52.8024 17.816C52.8024 20.696 53.2024 23.176 54.0024 25.256C54.8024 27.336 56.0344 28.936 57.6984 30.056C59.3944 31.176 61.5224 31.736 64.0824 31.736C66.6744 31.736 68.7864 31.176 70.4184 30.056C72.0824 28.936 73.3144 27.336 74.1144 25.256C74.9144 23.176 75.3144 20.696 75.3144 17.816C75.3144 13.496 74.4184 10.12 72.6264 7.688C70.8344 5.224 68.0024 3.992 64.1304 3.992C61.5384 3.992 59.3944 4.552 57.6984 5.672C56.0344 6.76 54.8024 8.344 54.0024 10.424C53.2024 12.472 52.8024 14.936 52.8024 17.816ZM111.518 35H106.334L90.8304 17.624V35H86.5104V0.727998H90.8304V17.336L105.95 0.727998H110.846L95.9664 17.384L111.518 35ZM124.294 0.727998C128.774 0.727998 132.038 1.608 134.086 3.368C136.134 5.128 137.158 7.608 137.158 10.808C137.158 12.216 136.918 13.576 136.438 14.888C135.99 16.168 135.238 17.32 134.182 18.344C133.126 19.368 131.718 20.184 129.958 20.792C128.198 21.368 126.038 21.656 123.478 21.656H119.542V35H115.222V0.727998H124.294ZM123.91 4.424H119.542V17.96H122.998C125.174 17.96 126.982 17.736 128.422 17.288C129.862 16.808 130.934 16.056 131.638 15.032C132.342 14.008 132.694 12.664 132.694 11C132.694 8.792 131.99 7.144 130.582 6.056C129.174 4.968 126.95 4.424 123.91 4.424ZM162.438 35L158.31 24.392H144.726L140.646 35H136.278L149.67 0.584H153.558L166.902 35H162.438ZM153.174 10.184C153.078 9.928 152.918 9.464 152.694 8.792C152.47 8.12 152.246 7.432 152.022 6.728C151.83 5.992 151.67 5.432 151.542 5.048C151.382 5.688 151.206 6.344 151.014 7.016C150.854 7.656 150.678 8.248 150.486 8.792C150.326 9.336 150.182 9.8 150.054 10.184L146.166 20.552H157.014L153.174 10.184ZM211.046 35H170.63V0.727998H174.95V31.16H188.63V0.727998H192.95V31.16H206.678V0.727998H211.046V35ZM219.5 0.727998H223.532V19.544C223.532 20.344 223.516 21.224 223.484 22.184C223.484 23.112 223.468 24.04 223.436 24.968C223.404 25.896 223.356 26.728 223.292 27.464C223.26 28.168 223.228 28.712 223.196 29.096H223.388L242.252 0.727998H247.052V35H243.02V16.376C243.02 15.512 243.036 14.584 243.068 13.592C243.1 12.568 243.132 11.592 243.164 10.664C243.228 9.704 243.276 8.856 243.308 8.12C243.34 7.384 243.372 6.84 243.404 6.488H243.212L224.3 35H219.5V0.727998ZM265.127 0.727998C267.975 0.727998 270.359 0.999998 272.279 1.544C274.231 2.088 275.687 2.984 276.647 4.232C277.639 5.48 278.135 7.144 278.135 9.224C278.135 10.568 277.879 11.768 277.367 12.824C276.887 13.848 276.151 14.712 275.159 15.416C274.199 16.088 273.015 16.552 271.607 16.808V17.048C273.047 17.272 274.343 17.688 275.495 18.296C276.679 18.904 277.607 19.768 278.279 20.888C278.951 22.008 279.287 23.464 279.287 25.256C279.287 27.336 278.807 29.112 277.847 30.584C276.887 32.024 275.511 33.128 273.719 33.896C271.959 34.632 269.847 35 267.383 35H255.335V0.727998H265.127ZM265.991 15.32C268.935 15.32 270.951 14.856 272.039 13.928C273.127 12.968 273.671 11.56 273.671 9.704C273.671 7.816 272.999 6.472 271.655 5.672C270.343 4.84 268.231 4.424 265.319 4.424H259.655V15.32H265.991ZM259.655 18.92V31.352H266.567C269.607 31.352 271.719 30.76 272.903 29.576C274.087 28.392 274.679 26.84 274.679 24.92C274.679 23.704 274.407 22.648 273.863 21.752C273.351 20.856 272.471 20.168 271.223 19.688C270.007 19.176 268.343 18.92 266.231 18.92H259.655ZM307.098 35L302.97 24.392H289.386L285.306 35H280.938L294.33 0.584H298.218L311.562 35H307.098ZM297.834 10.184C297.738 9.928 297.578 9.464 297.354 8.792C297.13 8.12 296.906 7.432 296.682 6.728C296.49 5.992 296.33 5.432 296.202 5.048C296.042 5.688 295.866 6.344 295.674 7.016C295.514 7.656 295.338 8.248 295.146 8.792C294.986 9.336 294.842 9.8 294.714 10.184L290.826 20.552H301.674L297.834 10.184ZM341.498 35H337.178V19.016H319.61V35H315.29V0.727998H319.61V15.224H337.178V0.727998H341.498V35ZM349.957 0.727998H353.989V19.544C353.989 20.344 353.973 21.224 353.941 22.184C353.941 23.112 353.925 24.04 353.893 24.968C353.861 25.896 353.813 26.728 353.749 27.464C353.717 28.168 353.685 28.712 353.653 29.096H353.845L372.709 0.727998H377.509V35H373.477V16.376C373.477 15.512 373.493 14.584 373.525 13.592C373.557 12.568 373.589 11.592 373.621 10.664C373.685 9.704 373.733 8.856 373.765 8.12C373.797 7.384 373.829 6.84 373.861 6.488H373.669L354.757 35H349.957V0.727998ZM396.112 20.792L387.232 35H382.192L391.792 20.024C390.576 19.608 389.424 19.032 388.336 18.296C387.28 17.56 386.416 16.552 385.744 15.272C385.072 13.992 384.736 12.344 384.736 10.328C384.736 7.224 385.808 4.856 387.952 3.224C390.096 1.56 393.296 0.727998 397.552 0.727998H407.152V35H402.832V20.792H396.112ZM397.648 4.424C395.824 4.424 394.288 4.632 393.04 5.048C391.792 5.464 390.832 6.12 390.16 7.016C389.52 7.912 389.2 9.08 389.2 10.52C389.2 12.632 389.904 14.264 391.312 15.416C392.72 16.568 394.896 17.144 397.84 17.144H402.832V4.424H397.648ZM438.711 0.727998C441.559 0.727998 443.943 0.999998 445.863 1.544C447.815 2.088 449.271 2.984 450.231 4.232C451.223 5.48 451.719 7.144 451.719 9.224C451.719 10.568 451.463 11.768 450.951 12.824C450.471 13.848 449.735 14.712 448.743 15.416C447.783 16.088 446.599 16.552 445.191 16.808V17.048C446.631 17.272 447.927 17.688 449.079 18.296C450.263 18.904 451.191 19.768 451.863 20.888C452.535 22.008 452.871 23.464 452.871 25.256C452.871 27.336 452.391 29.112 451.431 30.584C450.471 32.024 449.095 33.128 447.303 33.896C445.543 34.632 443.431 35 440.967 35H428.919V0.727998H438.711ZM439.575 15.32C442.519 15.32 444.535 14.856 445.623 13.928C446.711 12.968 447.255 11.56 447.255 9.704C447.255 7.816 446.583 6.472 445.239 5.672C443.927 4.84 441.815 4.424 438.903 4.424H433.239V15.32H439.575ZM433.239 18.92V31.352H440.151C443.191 31.352 445.303 30.76 446.487 29.576C447.671 28.392 448.263 26.84 448.263 24.92C448.263 23.704 447.991 22.648 447.447 21.752C446.935 20.856 446.055 20.168 444.807 19.688C443.591 19.176 441.927 18.92 439.815 18.92H433.239ZM489.082 17.816C489.082 20.472 488.746 22.888 488.074 25.064C487.402 27.208 486.394 29.064 485.05 30.632C483.738 32.2 482.09 33.4 480.106 34.232C478.154 35.064 475.882 35.48 473.29 35.48C470.602 35.48 468.266 35.064 466.282 34.232C464.298 33.368 462.65 32.168 461.338 30.632C460.026 29.064 459.05 27.192 458.41 25.016C457.77 22.84 457.45 20.424 457.45 17.768C457.45 14.248 458.026 11.176 459.178 8.552C460.33 5.928 462.074 3.88 464.41 2.408C466.778 0.935999 469.754 0.199999 473.338 0.199999C476.762 0.199999 479.642 0.935999 481.978 2.408C484.314 3.848 486.074 5.896 487.258 8.552C488.474 11.176 489.082 14.264 489.082 17.816ZM462.01 17.816C462.01 20.696 462.41 23.176 463.21 25.256C464.01 27.336 465.242 28.936 466.906 30.056C468.602 31.176 470.73 31.736 473.29 31.736C475.882 31.736 477.994 31.176 479.626 30.056C481.29 28.936 482.522 27.336 483.322 25.256C484.122 23.176 484.522 20.696 484.522 17.816C484.522 13.496 483.626 10.12 481.834 7.688C480.042 5.224 477.21 3.992 473.338 3.992C470.746 3.992 468.602 4.552 466.906 5.672C465.242 6.76 464.01 8.344 463.21 10.424C462.41 12.472 462.01 14.936 462.01 17.816ZM519.452 35H515.132V4.52H504.284C504.06 6.28 503.82 8.136 503.564 10.088C503.308 12.008 503.036 13.912 502.748 15.8C502.492 17.688 502.236 19.464 501.98 21.128C501.724 22.792 501.468 24.248 501.212 25.496C500.796 27.64 500.284 29.464 499.676 30.968C499.068 32.472 498.252 33.608 497.228 34.376C496.236 35.144 494.924 35.528 493.292 35.528C492.748 35.528 492.188 35.464 491.612 35.336C491.068 35.24 490.588 35.112 490.172 34.952V31.352C490.524 31.512 490.924 31.656 491.372 31.784C491.82 31.88 492.3 31.928 492.812 31.928C493.772 31.928 494.524 31.544 495.068 30.776C495.644 29.976 496.092 29 496.412 27.848C496.732 26.664 497.004 25.496 497.228 24.344C497.42 23.416 497.644 22.184 497.9 20.648C498.156 19.08 498.428 17.256 498.716 15.176C499.036 13.096 499.356 10.84 499.676 8.408C500.028 5.944 500.364 3.384 500.684 0.727998H519.452V35ZM557.709 17.816C557.709 20.472 557.373 22.888 556.701 25.064C556.029 27.208 555.021 29.064 553.677 30.632C552.365 32.2 550.717 33.4 548.733 34.232C546.781 35.064 544.509 35.48 541.917 35.48C539.229 35.48 536.893 35.064 534.909 34.232C532.925 33.368 531.277 32.168 529.965 30.632C528.653 29.064 527.677 27.192 527.037 25.016C526.397 22.84 526.077 20.424 526.077 17.768C526.077 14.248 526.653 11.176 527.805 8.552C528.957 5.928 530.701 3.88 533.037 2.408C535.405 0.935999 538.381 0.199999 541.965 0.199999C545.389 0.199999 548.269 0.935999 550.605 2.408C552.941 3.848 554.701 5.896 555.885 8.552C557.101 11.176 557.709 14.264 557.709 17.816ZM530.637 17.816C530.637 20.696 531.037 23.176 531.837 25.256C532.637 27.336 533.869 28.936 535.533 30.056C537.229 31.176 539.357 31.736 541.917 31.736C544.509 31.736 546.621 31.176 548.253 30.056C549.917 28.936 551.149 27.336 551.949 25.256C552.749 23.176 553.149 20.696 553.149 17.816C553.149 13.496 552.253 10.12 550.461 7.688C548.669 5.224 545.837 3.992 541.965 3.992C539.373 3.992 537.229 4.552 535.533 5.672C533.869 6.76 532.637 8.344 531.837 10.424C531.037 12.472 530.637 14.936 530.637 17.816ZM579.033 4.04C577.209 4.04 575.561 4.36 574.089 5C572.617 5.608 571.369 6.52 570.345 7.736C569.321 8.92 568.537 10.376 567.993 12.104C567.449 13.8 567.177 15.72 567.177 17.864C567.177 20.68 567.609 23.128 568.473 25.208C569.369 27.288 570.681 28.888 572.409 30.008C574.169 31.128 576.361 31.688 578.985 31.688C580.489 31.688 581.913 31.56 583.257 31.304C584.601 31.048 585.913 30.728 587.193 30.344V34.088C585.913 34.568 584.585 34.92 583.209 35.144C581.865 35.368 580.249 35.48 578.361 35.48C574.873 35.48 571.961 34.76 569.625 33.32C567.289 31.88 565.529 29.832 564.345 27.176C563.193 24.52 562.617 21.4 562.617 17.816C562.617 15.224 562.969 12.856 563.673 10.712C564.409 8.568 565.465 6.712 566.841 5.144C568.249 3.576 569.977 2.376 572.025 1.544C574.073 0.679998 576.425 0.247998 579.081 0.247998C580.841 0.247998 582.537 0.423998 584.169 0.775997C585.801 1.128 587.257 1.624 588.537 2.264L586.809 5.912C585.753 5.432 584.569 5 583.257 4.616C581.977 4.232 580.569 4.04 579.033 4.04Z" fill="url(#paint0_linear_169_26)"/>
<defs>
<linearGradient id="paint0_linear_169_26" x1="82.1502" y1="18" x2="339.067" y2="148.228" gradientUnits="userSpaceOnUse">
<stop stop-color="#FF4040"/>
<stop offset="1" stop-color="#A20BD8"/>
</linearGradient>
</defs>
</svg>
