<svg width="408" height="86" viewBox="0 0 408 86" fill="none" xmlns="http://www.w3.org/2000/svg">
<path d="M0.704 0.727998H4.736V19.544C4.736 20.344 4.72 21.224 4.688 22.184C4.688 23.112 4.672 24.04 4.64 24.968C4.608 25.896 4.56 26.728 4.496 27.464C4.464 28.168 4.432 28.712 4.4 29.096H4.592L23.456 0.727998H28.256V35H24.224V16.376C24.224 15.512 24.24 14.584 24.272 13.592C24.304 12.568 24.336 11.592 24.368 10.664C24.432 9.704 24.48 8.856 24.512 8.12C24.544 7.384 24.576 6.84 24.608 6.488H24.416L5.504 35H0.704V0.727998ZM79.8744 17.816C79.8744 20.472 79.5384 22.888 78.8664 25.064C78.1944 27.208 77.1864 29.064 75.8424 30.632C74.5304 32.2 72.8824 33.4 70.8984 34.232C68.9464 35.064 66.6744 35.48 64.0824 35.48C61.3944 35.48 59.0584 35.064 57.0744 34.232C55.0904 33.368 53.4424 32.168 52.1304 30.632C50.8184 29.064 49.8424 27.192 49.2024 25.016C48.5624 22.84 48.2424 20.424 48.2424 17.768C48.2424 14.248 48.8184 11.176 49.9704 8.552C51.1224 5.928 52.8664 3.88 55.2024 2.408C57.5704 0.935999 60.5464 0.199999 64.1304 0.199999C67.5544 0.199999 70.4344 0.935999 72.7704 2.408C75.1064 3.848 76.8664 5.896 78.0504 8.552C79.2664 11.176 79.8744 14.264 79.8744 17.816ZM52.8024 17.816C52.8024 20.696 53.2024 23.176 54.0024 25.256C54.8024 27.336 56.0344 28.936 57.6984 30.056C59.3944 31.176 61.5224 31.736 64.0824 31.736C66.6744 31.736 68.7864 31.176 70.4184 30.056C72.0824 28.936 73.3144 27.336 74.1144 25.256C74.9144 23.176 75.3144 20.696 75.3144 17.816C75.3144 13.496 74.4184 10.12 72.6264 7.688C70.8344 5.224 68.0024 3.992 64.1304 3.992C61.5384 3.992 59.3944 4.552 57.6984 5.672C56.0344 6.76 54.8024 8.344 54.0024 10.424C53.2024 12.472 52.8024 14.936 52.8024 17.816ZM111.518 35H106.334L90.8304 17.624V35H86.5104V0.727998H90.8304V17.336L105.95 0.727998H110.846L95.9664 17.384L111.518 35ZM124.294 0.727998C128.774 0.727998 132.038 1.608 134.086 3.368C136.134 5.128 137.158 7.608 137.158 10.808C137.158 12.216 136.918 13.576 136.438 14.888C135.99 16.168 135.238 17.32 134.182 18.344C133.126 19.368 131.718 20.184 129.958 20.792C128.198 21.368 126.038 21.656 123.478 21.656H119.542V35H115.222V0.727998H124.294ZM123.91 4.424H119.542V17.96H122.998C125.174 17.96 126.982 17.736 128.422 17.288C129.862 16.808 130.934 16.056 131.638 15.032C132.342 14.008 132.694 12.664 132.694 11C132.694 8.792 131.99 7.144 130.582 6.056C129.174 4.968 126.95 4.424 123.91 4.424ZM162.438 35L158.31 24.392H144.726L140.646 35H136.278L149.67 0.584H153.558L166.902 35H162.438ZM153.174 10.184C153.078 9.928 152.918 9.464 152.694 8.792C152.47 8.12 152.246 7.432 152.022 6.728C151.83 5.992 151.67 5.432 151.542 5.048C151.382 5.688 151.206 6.344 151.014 7.016C150.854 7.656 150.678 8.248 150.486 8.792C150.326 9.336 150.182 9.8 150.054 10.184L146.166 20.552H157.014L153.174 10.184ZM211.046 35H170.63V0.727998H174.95V31.16H188.63V0.727998H192.95V31.16H206.678V0.727998H211.046V35ZM219.5 0.727998H223.532V19.544C223.532 20.344 223.516 21.224 223.484 22.184C223.484 23.112 223.468 24.04 223.436 24.968C223.404 25.896 223.356 26.728 223.292 27.464C223.26 28.168 223.228 28.712 223.196 29.096H223.388L242.252 0.727998H247.052V35H243.02V16.376C243.02 15.512 243.036 14.584 243.068 13.592C243.1 12.568 243.132 11.592 243.164 10.664C243.228 9.704 243.276 8.856 243.308 8.12C243.34 7.384 243.372 6.84 243.404 6.488H243.212L224.3 35H219.5V0.727998ZM265.127 0.727998C267.975 0.727998 270.359 0.999998 272.279 1.544C274.231 2.088 275.687 2.984 276.647 4.232C277.639 5.48 278.135 7.144 278.135 9.224C278.135 10.568 277.879 11.768 277.367 12.824C276.887 13.848 276.151 14.712 275.159 15.416C274.199 16.088 273.015 16.552 271.607 16.808V17.048C273.047 17.272 274.343 17.688 275.495 18.296C276.679 18.904 277.607 19.768 278.279 20.888C278.951 22.008 279.287 23.464 279.287 25.256C279.287 27.336 278.807 29.112 277.847 30.584C276.887 32.024 275.511 33.128 273.719 33.896C271.959 34.632 269.847 35 267.383 35H255.335V0.727998H265.127ZM265.991 15.32C268.935 15.32 270.951 14.856 272.039 13.928C273.127 12.968 273.671 11.56 273.671 9.704C273.671 7.816 272.999 6.472 271.655 5.672C270.343 4.84 268.231 4.424 265.319 4.424H259.655V15.32H265.991ZM259.655 18.92V31.352H266.567C269.607 31.352 271.719 30.76 272.903 29.576C274.087 28.392 274.679 26.84 274.679 24.92C274.679 23.704 274.407 22.648 273.863 21.752C273.351 20.856 272.471 20.168 271.223 19.688C270.007 19.176 268.343 18.92 266.231 18.92H259.655ZM307.098 35L302.97 24.392H289.386L285.306 35H280.938L294.33 0.584H298.218L311.562 35H307.098ZM297.834 10.184C297.738 9.928 297.578 9.464 297.354 8.792C297.13 8.12 296.906 7.432 296.682 6.728C296.49 5.992 296.33 5.432 296.202 5.048C296.042 5.688 295.866 6.344 295.674 7.016C295.514 7.656 295.338 8.248 295.146 8.792C294.986 9.336 294.842 9.8 294.714 10.184L290.826 20.552H301.674L297.834 10.184ZM341.498 35H337.178V19.016H319.61V35H315.29V0.727998H319.61V15.224H337.178V0.727998H341.498V35ZM349.957 0.727998H353.989V19.544C353.989 20.344 353.973 21.224 353.941 22.184C353.941 23.112 353.925 24.04 353.893 24.968C353.861 25.896 353.813 26.728 353.749 27.464C353.717 28.168 353.685 28.712 353.653 29.096H353.845L372.709 0.727998H377.509V35H373.477V16.376C373.477 15.512 373.493 14.584 373.525 13.592C373.557 12.568 373.589 11.592 373.621 10.664C373.685 9.704 373.733 8.856 373.765 8.12C373.797 7.384 373.829 6.84 373.861 6.488H373.669L354.757 35H349.957V0.727998ZM396.112 20.792L387.232 35H382.192L391.792 20.024C390.576 19.608 389.424 19.032 388.336 18.296C387.28 17.56 386.416 16.552 385.744 15.272C385.072 13.992 384.736 12.344 384.736 10.328C384.736 7.224 385.808 4.856 387.952 3.224C390.096 1.56 393.296 0.727998 397.552 0.727998H407.152V35H402.832V20.792H396.112ZM397.648 4.424C395.824 4.424 394.288 4.632 393.04 5.048C391.792 5.464 390.832 6.12 390.16 7.016C389.52 7.912 389.2 9.08 389.2 10.52C389.2 12.632 389.904 14.264 391.312 15.416C392.72 16.568 394.896 17.144 397.84 17.144H402.832V4.424H397.648ZM10.448 50.728C13.296 50.728 15.68 51 17.6 51.544C19.552 52.088 21.008 52.984 21.968 54.232C22.96 55.48 23.456 57.144 23.456 59.224C23.456 60.568 23.2 61.768 22.688 62.824C22.208 63.848 21.472 64.712 20.48 65.416C19.52 66.088 18.336 66.552 16.928 66.808V67.048C18.368 67.272 19.664 67.688 20.816 68.296C22 68.904 22.928 69.768 23.6 70.888C24.272 72.008 24.608 73.464 24.608 75.256C24.608 77.336 24.128 79.112 23.168 80.584C22.208 82.024 20.832 83.128 19.04 83.896C17.28 84.632 15.168 85 12.704 85H0.656V50.728H10.448ZM11.312 65.32C14.256 65.32 16.272 64.856 17.36 63.928C18.448 62.968 18.992 61.56 18.992 59.704C18.992 57.816 18.32 56.472 16.976 55.672C15.664 54.84 13.552 54.424 10.64 54.424H4.976V65.32H11.312ZM4.976 68.92V81.352H11.888C14.928 81.352 17.04 80.76 18.224 79.576C19.408 78.392 20 76.84 20 74.92C20 73.704 19.728 72.648 19.184 71.752C18.672 70.856 17.792 70.168 16.544 69.688C15.328 69.176 13.664 68.92 11.552 68.92H4.976ZM60.8188 67.816C60.8188 70.472 60.4828 72.888 59.8108 75.064C59.1388 77.208 58.1308 79.064 56.7868 80.632C55.4748 82.2 53.8268 83.4 51.8428 84.232C49.8908 85.064 47.6188 85.48 45.0268 85.48C42.3388 85.48 40.0028 85.064 38.0188 84.232C36.0348 83.368 34.3868 82.168 33.0748 80.632C31.7628 79.064 30.7868 77.192 30.1468 75.016C29.5068 72.84 29.1868 70.424 29.1868 67.768C29.1868 64.248 29.7628 61.176 30.9148 58.552C32.0668 55.928 33.8108 53.88 36.1468 52.408C38.5148 50.936 41.4908 50.2 45.0748 50.2C48.4988 50.2 51.3788 50.936 53.7148 52.408C56.0508 53.848 57.8108 55.896 58.9948 58.552C60.2108 61.176 60.8188 64.264 60.8188 67.816ZM33.7468 67.816C33.7468 70.696 34.1468 73.176 34.9468 75.256C35.7468 77.336 36.9788 78.936 38.6428 80.056C40.3388 81.176 42.4668 81.736 45.0268 81.736C47.6188 81.736 49.7308 81.176 51.3628 80.056C53.0268 78.936 54.2588 77.336 55.0588 75.256C55.8588 73.176 56.2588 70.696 56.2588 67.816C56.2588 63.496 55.3628 60.12 53.5708 57.688C51.7788 55.224 48.9468 53.992 45.0748 53.992C42.4828 53.992 40.3388 54.552 38.6428 55.672C36.9788 56.76 35.7468 58.344 34.9468 60.424C34.1468 62.472 33.7468 64.936 33.7468 67.816ZM91.1893 85H86.8693V54.52H76.0213C75.7973 56.28 75.5573 58.136 75.3013 60.088C75.0453 62.008 74.7733 63.912 74.4853 65.8C74.2293 67.688 73.9733 69.464 73.7173 71.128C73.4613 72.792 73.2053 74.248 72.9493 75.496C72.5333 77.64 72.0213 79.464 71.4133 80.968C70.8053 82.472 69.9893 83.608 68.9653 84.376C67.9733 85.144 66.6613 85.528 65.0293 85.528C64.4853 85.528 63.9253 85.464 63.3493 85.336C62.8053 85.24 62.3253 85.112 61.9093 84.952V81.352C62.2613 81.512 62.6613 81.656 63.1093 81.784C63.5573 81.88 64.0373 81.928 64.5493 81.928C65.5093 81.928 66.2613 81.544 66.8053 80.776C67.3813 79.976 67.8293 79 68.1493 77.848C68.4693 76.664 68.7413 75.496 68.9653 74.344C69.1573 73.416 69.3813 72.184 69.6373 70.648C69.8933 69.08 70.1653 67.256 70.4533 65.176C70.7733 63.096 71.0933 60.84 71.4133 58.408C71.7653 55.944 72.1013 53.384 72.4213 50.728H91.1893V85ZM129.446 67.816C129.446 70.472 129.11 72.888 128.438 75.064C127.766 77.208 126.758 79.064 125.414 80.632C124.102 82.2 122.454 83.4 120.47 84.232C118.518 85.064 116.246 85.48 113.654 85.48C110.966 85.48 108.63 85.064 106.646 84.232C104.662 83.368 103.014 82.168 101.702 80.632C100.39 79.064 99.4136 77.192 98.7736 75.016C98.1336 72.84 97.8136 70.424 97.8136 67.768C97.8136 64.248 98.3896 61.176 99.5416 58.552C100.694 55.928 102.438 53.88 104.774 52.408C107.142 50.936 110.118 50.2 113.702 50.2C117.126 50.2 120.006 50.936 122.342 52.408C124.678 53.848 126.438 55.896 127.622 58.552C128.838 61.176 129.446 64.264 129.446 67.816ZM102.374 67.816C102.374 70.696 102.774 73.176 103.574 75.256C104.374 77.336 105.606 78.936 107.27 80.056C108.966 81.176 111.094 81.736 113.654 81.736C116.246 81.736 118.358 81.176 119.99 80.056C121.654 78.936 122.886 77.336 123.686 75.256C124.486 73.176 124.886 70.696 124.886 67.816C124.886 63.496 123.99 60.12 122.198 57.688C120.406 55.224 117.574 53.992 113.702 53.992C111.11 53.992 108.966 54.552 107.27 55.672C105.606 56.76 104.374 58.344 103.574 60.424C102.774 62.472 102.374 64.936 102.374 67.816ZM150.77 54.04C148.946 54.04 147.298 54.36 145.826 55C144.354 55.608 143.106 56.52 142.082 57.736C141.058 58.92 140.274 60.376 139.73 62.104C139.186 63.8 138.914 65.72 138.914 67.864C138.914 70.68 139.346 73.128 140.21 75.208C141.106 77.288 142.418 78.888 144.146 80.008C145.906 81.128 148.098 81.688 150.722 81.688C152.226 81.688 153.65 81.56 154.994 81.304C156.338 81.048 157.65 80.728 158.93 80.344V84.088C157.65 84.568 156.322 84.92 154.946 85.144C153.602 85.368 151.986 85.48 150.098 85.48C146.61 85.48 143.698 84.76 141.362 83.32C139.026 81.88 137.266 79.832 136.082 77.176C134.93 74.52 134.354 71.4 134.354 67.816C134.354 65.224 134.706 62.856 135.41 60.712C136.146 58.568 137.202 56.712 138.578 55.144C139.986 53.576 141.714 52.376 143.762 51.544C145.81 50.68 148.162 50.248 150.818 50.248C152.578 50.248 154.274 50.424 155.906 50.776C157.538 51.128 158.994 51.624 160.274 52.264L158.546 55.912C157.49 55.432 156.306 55 154.994 54.616C153.714 54.232 152.306 54.04 150.77 54.04Z" fill="url(#paint0_linear_169_26)"/>
<defs>
<linearGradient id="paint0_linear_169_26" x1="58.2598" y1="43" x2="284.061" y2="84.3581" gradientUnits="userSpaceOnUse">
<stop stop-color="#FF4040"/>
<stop offset="1" stop-color="#A20BD8"/>
</linearGradient>
</defs>
</svg>
