<svg width="161" height="71" viewBox="0 0 161 71" fill="none" xmlns="http://www.w3.org/2000/svg">
<line y1="70" x2="157" y2="70" stroke="url(#paint0_linear_181_27)" stroke-width="2"/>
<path d="M29.664 53H24.48L8.976 35.624V53H4.656V18.728H8.976V35.336L24.096 18.728H28.992L14.112 35.384L29.664 53ZM48.6799 43.256C47.6559 45.528 46.6159 47.432 45.5599 48.968C44.5359 50.472 43.3199 51.608 41.9119 52.376C40.5039 53.112 38.7119 53.48 36.5359 53.48C35.6399 53.48 34.7919 53.416 33.9919 53.288C33.2239 53.16 32.5199 52.984 31.8799 52.76V48.488C32.5199 48.776 33.2079 49.016 33.9439 49.208C34.6799 49.368 35.4479 49.448 36.2479 49.448C37.4319 49.448 38.4399 49.288 39.2719 48.968C40.1359 48.616 40.8879 48.056 41.5279 47.288C42.1999 46.52 42.8239 45.496 43.3999 44.216L30.1999 18.728H34.9519L44.5039 37.592C44.6319 37.816 44.7599 38.088 44.8879 38.408C45.0159 38.696 45.1439 39 45.2719 39.32C45.4319 39.64 45.5599 39.944 45.6559 40.232H45.8479C45.9439 40.008 46.0399 39.752 46.1359 39.464C46.2639 39.144 46.3759 38.84 46.4719 38.552C46.5999 38.232 46.7119 37.96 46.8079 37.736L55.0639 18.728H59.6239L48.6799 43.256ZM73.353 18.728C77.833 18.728 81.097 19.608 83.145 21.368C85.193 23.128 86.217 25.608 86.217 28.808C86.217 30.216 85.977 31.576 85.497 32.888C85.049 34.168 84.297 35.32 83.241 36.344C82.185 37.368 80.777 38.184 79.017 38.792C77.257 39.368 75.097 39.656 72.537 39.656H68.601V53H64.281V18.728H73.353ZM72.969 22.424H68.601V35.96H72.057C74.233 35.96 76.041 35.736 77.481 35.288C78.921 34.808 79.993 34.056 80.697 33.032C81.401 32.008 81.753 30.664 81.753 29C81.753 26.792 81.049 25.144 79.641 24.056C78.233 22.968 76.009 22.424 72.969 22.424ZM108.032 22.04C106.208 22.04 104.56 22.36 103.088 23C101.616 23.608 100.368 24.52 99.3435 25.736C98.3195 26.92 97.5355 28.376 96.9915 30.104C96.4475 31.8 96.1755 33.72 96.1755 35.864C96.1755 38.68 96.6075 41.128 97.4715 43.208C98.3675 45.288 99.6795 46.888 101.408 48.008C103.168 49.128 105.36 49.688 107.984 49.688C109.488 49.688 110.912 49.56 112.256 49.304C113.6 49.048 114.912 48.728 116.192 48.344V52.088C114.912 52.568 113.584 52.92 112.208 53.144C110.864 53.368 109.248 53.48 107.36 53.48C103.872 53.48 100.96 52.76 98.6235 51.32C96.2875 49.88 94.5275 47.832 93.3435 45.176C92.1915 42.52 91.6155 39.4 91.6155 35.816C91.6155 33.224 91.9675 30.856 92.6715 28.712C93.4075 26.568 94.4635 24.712 95.8395 23.144C97.2475 21.576 98.9755 20.376 101.023 19.544C103.072 18.68 105.424 18.248 108.08 18.248C109.84 18.248 111.536 18.424 113.168 18.776C114.8 19.128 116.256 19.624 117.536 20.264L115.807 23.912C114.752 23.432 113.568 23 112.256 22.616C110.976 22.232 109.568 22.04 108.032 22.04ZM123.672 53V18.728H127.992V33.224H133.272C136.472 33.224 138.984 33.656 140.808 34.52C142.664 35.384 143.976 36.552 144.744 38.024C145.544 39.496 145.944 41.144 145.944 42.968C145.944 44.984 145.512 46.744 144.648 48.248C143.816 49.752 142.504 50.92 140.712 51.752C138.92 52.584 136.616 53 133.8 53H123.672ZM133.416 49.352C136.168 49.352 138.2 48.824 139.512 47.768C140.824 46.712 141.48 45.112 141.48 42.968C141.48 41.496 141.16 40.328 140.52 39.464C139.912 38.6 138.968 37.976 137.688 37.592C136.408 37.208 134.776 37.016 132.792 37.016H127.992V49.352H133.416ZM151.224 53V18.728H155.544V53H151.224Z" fill="url(#paint1_linear_181_27)"/>
<defs>
<linearGradient id="paint0_linear_181_27" x1="22.7321" y1="71.5" x2="24.5957" y2="83.9629" gradientUnits="userSpaceOnUse">
<stop stop-color="#FF4040"/>
<stop offset="1" stop-color="#A20BD8"/>
</linearGradient>
<linearGradient id="paint1_linear_181_27" x1="23.3112" y1="33" x2="109.758" y2="41.9825" gradientUnits="userSpaceOnUse">
<stop stop-color="#FF4040"/>
<stop offset="1" stop-color="#A20BD8"/>
</linearGradient>
</defs>
</svg>
