<svg width="44" height="41" viewBox="0 0 44 41" fill="none" xmlns="http://www.w3.org/2000/svg">
<g clip-path="url(#clip0_47_11)">
<path d="M11.6769 22.3671L0.868404 18.0792C-0.349674 17.5963 -0.26726 16.0049 0.995678 15.6282L42.0961 3.3436C43.1713 3.02251 44.2191 3.89284 43.9601 4.89267L35.747 36.5543C35.5017 37.5002 34.2481 37.886 33.4189 37.2703L23.7682 30.1108L11.6769 22.3671Z" fill="#EBF0FA"/>
<path d="M34.0712 10.1807L11.6768 22.3671L14.4169 33.8909C14.6627 34.9248 16.0068 35.3805 16.9404 34.7465L23.7682 30.1107L18.1503 25.9422L34.7788 11.0061C35.2663 10.5681 34.6598 9.86041 34.0712 10.1807Z" fill="#BEC3D2"/>
<path d="M15.3205 34.9064C15.8239 35.1127 16.4409 35.0858 16.9404 34.7465L23.7682 30.1107L20.9593 28.0265L18.1503 25.9423L15.3205 34.9064Z" fill="#AFB4C8"/>
</g>
<defs>
<clipPath id="clip0_47_11">
<rect width="44" height="39.8934" fill="white" transform="translate(0 0.475403)"/>
</clipPath>
</defs>
</svg>
