<svg width="55" height="58" viewBox="0 0 55 58" fill="none" xmlns="http://www.w3.org/2000/svg">
<g clip-path="url(#clip0_47_8)">
<path d="M54.7084 42.3396C54.6418 42.1883 54.5797 42.0627 54.5221 41.9622C53.5678 40.1498 51.7443 37.9252 49.0525 35.2878L48.9957 35.2274L48.9672 35.1978L48.9384 35.1675H48.9095C47.6879 33.9394 46.9143 33.1136 46.5903 32.6909C45.9975 31.8855 45.8647 31.0703 46.1887 30.2444C46.4176 29.6203 47.2773 28.3024 48.766 26.2889C49.549 25.2218 50.1692 24.3665 50.6271 23.7222C53.9301 19.0915 55.3621 16.1325 54.9228 14.8439L54.7522 14.5428C54.6375 14.3615 54.3416 14.1956 53.8649 14.0444C53.3871 13.8935 52.7764 13.8685 52.0316 13.9691L43.7846 14.0292C43.651 13.9792 43.4602 13.9839 43.2117 14.0444C42.9635 14.1049 42.8393 14.1353 42.8393 14.1353L42.6958 14.2109L42.5818 14.3017C42.4863 14.3618 42.3813 14.4675 42.2667 14.6185C42.1526 14.769 42.0573 14.9457 41.981 15.1469C41.0832 17.5829 40.0623 19.8478 38.9166 21.9414C38.2102 23.1898 37.5614 24.2718 36.969 25.1878C36.3773 26.1036 35.8809 26.7783 35.4803 27.2108C35.0791 27.6437 34.717 27.9905 34.3919 28.2525C34.0672 28.5146 33.8194 28.6254 33.6478 28.5849C33.4757 28.5443 33.3138 28.5041 33.1604 28.464C32.8933 28.2827 32.6785 28.0361 32.5165 27.7241C32.3538 27.4121 32.2443 27.0193 32.187 26.5462C32.13 26.0728 32.0963 25.6656 32.0867 25.3232C32.0778 24.9813 32.0819 24.4976 32.1012 23.8735C32.1211 23.2492 32.13 22.8267 32.13 22.6052C32.13 21.8401 32.1442 21.0097 32.1726 20.1138C32.2014 19.2179 32.2248 18.5081 32.2444 17.9852C32.2638 17.4617 32.2729 16.9079 32.2729 16.3241C32.2729 15.7402 32.2392 15.2823 32.1726 14.95C32.1068 14.6181 32.0058 14.2959 31.8727 13.9836C31.7388 13.6716 31.5428 13.4302 31.2856 13.2588C31.0279 13.0877 30.7076 12.9519 30.3263 12.851C29.3144 12.6095 28.0259 12.4789 26.4601 12.4586C22.9094 12.4184 20.6279 12.6602 19.6161 13.1836C19.2152 13.4048 18.8524 13.707 18.528 14.0892C18.1843 14.5323 18.1363 14.7741 18.3845 14.8139C19.5301 14.9948 20.3411 15.4278 20.8185 16.1122L20.9905 16.4749C21.1243 16.7366 21.2579 17.1998 21.3916 17.8641C21.5251 18.5283 21.6112 19.2631 21.6491 20.068C21.7444 21.5379 21.7444 22.7962 21.6491 23.8429C21.5535 24.89 21.4633 25.7052 21.3771 26.289C21.291 26.8729 21.1622 27.346 20.9905 27.7082C20.8185 28.0706 20.704 28.2921 20.6466 28.3725C20.5894 28.4529 20.5416 28.5035 20.5037 28.5234C20.2556 28.6237 19.9975 28.6748 19.7304 28.6748C19.4629 28.6748 19.1385 28.5337 18.7568 28.2517C18.3752 27.9697 17.9791 27.5824 17.5686 27.089C17.158 26.5956 16.695 25.9061 16.1794 25.0204C15.6642 24.1347 15.1296 23.0879 14.5759 21.88L14.1178 21.004C13.8315 20.4404 13.4403 19.6199 12.9439 18.543C12.4473 17.4657 12.0083 16.4237 11.6266 15.4171C11.4741 14.9943 11.2449 14.6725 10.9395 14.451L10.7961 14.3601C10.7008 14.2797 10.5479 14.1944 10.3381 14.1034C10.1279 14.0126 9.90868 13.9474 9.6794 13.9073L1.83307 13.9674C1.03128 13.9674 0.487255 14.1589 0.200799 14.5415L0.0861572 14.7225C0.0288862 14.8233 0 14.9843 0 15.2059C0 15.4273 0.057271 15.6992 0.171913 16.021C1.31733 18.8599 2.56295 21.5978 3.90877 24.235C5.25459 26.8723 6.42408 28.9967 7.41654 30.6063C8.40921 32.2171 9.42103 33.7373 10.452 35.1663C11.483 36.5958 12.1654 37.5119 12.4993 37.9143C12.8336 38.3175 13.0962 38.619 13.2871 38.8202L14.0031 39.5449C14.4613 40.0281 15.1341 40.6069 16.0218 41.2812C16.9098 41.9559 17.8928 42.6201 18.9714 43.275C20.0503 43.9287 21.3053 44.4622 22.7373 44.8749C24.1691 45.2879 25.5626 45.4536 26.9182 45.3737H30.2114C30.8793 45.3129 31.3853 45.0914 31.7292 44.7091L31.8432 44.5578C31.9198 44.4376 31.9915 44.2509 32.0577 43.9997C32.1247 43.7481 32.158 43.4709 32.158 43.1693C32.1384 42.3038 32.2009 41.5237 32.3438 40.8292C32.4865 40.135 32.6492 39.6115 32.8311 39.259C33.013 38.9068 33.2182 38.6096 33.4466 38.3686C33.6754 38.1271 33.8385 37.9809 33.9342 37.9305C34.0293 37.8798 34.1052 37.8455 34.1625 37.8248C34.6207 37.6639 35.1599 37.8198 35.7809 38.2933C36.4015 38.7664 36.9835 39.3506 37.5279 40.0449C38.0721 40.7398 38.7258 41.5194 39.4893 42.3849C40.2533 43.2508 40.9213 43.8944 41.4938 44.3178L42.0663 44.6801C42.4486 44.9219 42.945 45.1434 43.556 45.3447C44.166 45.5459 44.7004 45.5962 45.1592 45.4956L52.4898 45.375C53.2149 45.375 53.7791 45.2484 54.1792 44.9972C54.5802 44.7456 54.8185 44.4684 54.8953 44.1668C54.9719 43.865 54.976 43.5225 54.9098 43.1396C54.8419 42.7577 54.775 42.4906 54.7084 42.3396Z" fill="white"/>
</g>
<defs>
<clipPath id="clip0_47_8">
<rect width="55" height="58" fill="white"/>
</clipPath>
</defs>
</svg>
