<svg width="310" height="130" viewBox="0 0 310 130" fill="none" xmlns="http://www.w3.org/2000/svg">
<g filter="url(#filter0_d_184_52)">
<path d="M30 46C30 37.1634 37.1634 30 46 30H264C272.837 30 280 37.1634 280 46V84C280 92.8366 272.837 100 264 100H46C37.1634 100 30 92.8366 30 84V46Z" fill="url(#paint0_linear_184_52)"/>
</g>
<path d="M92.456 61.872C92.456 63.04 92.088 63.968 91.352 64.656C90.616 65.328 89.632 65.76 88.4 65.952V66.048C89.84 66.24 90.936 66.688 91.688 67.392C92.44 68.096 92.816 69.016 92.816 70.152C92.816 71.16 92.56 72.048 92.048 72.816C91.536 73.568 90.768 74.16 89.744 74.592C88.72 75.024 87.44 75.24 85.904 75.24C84.976 75.24 84.088 75.168 83.24 75.024C82.408 74.896 81.632 74.656 80.912 74.304V72.336C81.408 72.576 81.936 72.784 82.496 72.96C83.072 73.12 83.648 73.248 84.224 73.344C84.8 73.424 85.352 73.464 85.88 73.464C87.416 73.464 88.576 73.176 89.36 72.6C90.16 72.024 90.56 71.208 90.56 70.152C90.56 69.064 90.096 68.272 89.168 67.776C88.24 67.28 86.944 67.032 85.28 67.032H82.832V65.232H85.16C86.296 65.232 87.232 65.104 87.968 64.848C88.72 64.592 89.28 64.232 89.648 63.768C90.032 63.288 90.224 62.728 90.224 62.088C90.224 61.224 89.904 60.56 89.264 60.096C88.624 59.632 87.792 59.4 86.768 59.4C85.696 59.4 84.8 59.536 84.08 59.808C83.376 60.08 82.688 60.432 82.016 60.864L80.984 59.4C81.432 59.064 81.944 58.768 82.52 58.512C83.112 58.24 83.768 58.024 84.488 57.864C85.208 57.704 85.976 57.624 86.792 57.624C88.024 57.624 89.056 57.808 89.888 58.176C90.736 58.544 91.376 59.048 91.808 59.688C92.24 60.312 92.456 61.04 92.456 61.872ZM101.381 61.92C102.949 61.92 104.109 62.264 104.861 62.952C105.613 63.64 105.989 64.736 105.989 66.24V75H104.453L104.045 73.176H103.949C103.581 73.64 103.197 74.032 102.797 74.352C102.413 74.656 101.965 74.88 101.453 75.024C100.957 75.168 100.349 75.24 99.6294 75.24C98.8614 75.24 98.1654 75.104 97.5414 74.832C96.9334 74.56 96.4534 74.144 96.1014 73.584C95.7494 73.008 95.5734 72.288 95.5734 71.424C95.5734 70.144 96.0774 69.16 97.0854 68.472C98.0934 67.768 99.6454 67.384 101.741 67.32L103.925 67.248V66.48C103.925 65.408 103.693 64.664 103.229 64.248C102.765 63.832 102.109 63.624 101.261 63.624C100.589 63.624 99.9494 63.728 99.3414 63.936C98.7334 64.128 98.1654 64.352 97.6374 64.608L96.9894 63.024C97.5494 62.72 98.2134 62.464 98.9814 62.256C99.7494 62.032 100.549 61.92 101.381 61.92ZM102.005 68.784C100.405 68.848 99.2934 69.104 98.6694 69.552C98.0614 70 97.7574 70.632 97.7574 71.448C97.7574 72.168 97.9734 72.696 98.4054 73.032C98.8534 73.368 99.4214 73.536 100.109 73.536C101.197 73.536 102.101 73.24 102.821 72.648C103.541 72.04 103.901 71.112 103.901 69.864V68.712L102.005 68.784ZM121.195 62.136V75H119.082V63.936H112.434V75H110.322V62.136H121.195ZM127.651 69.984C127.651 70.128 127.643 70.336 127.627 70.608C127.627 70.864 127.619 71.144 127.603 71.448C127.587 71.736 127.571 72.016 127.555 72.288C127.539 72.544 127.523 72.752 127.507 72.912L134.395 62.136H136.987V75H135.019V67.416C135.019 67.16 135.019 66.824 135.019 66.408C135.035 65.992 135.051 65.584 135.067 65.184C135.083 64.768 135.099 64.456 135.115 64.248L128.275 75H125.659V62.136H127.651V69.984ZM146.601 75.24C145.465 75.24 144.449 75.008 143.553 74.544C142.673 74.08 141.977 73.36 141.465 72.384C140.969 71.408 140.721 70.16 140.721 68.64C140.721 67.056 140.985 65.768 141.513 64.776C142.041 63.784 142.753 63.056 143.649 62.592C144.561 62.128 145.593 61.896 146.745 61.896C147.401 61.896 148.033 61.968 148.641 62.112C149.249 62.24 149.745 62.4 150.129 62.592L149.481 64.344C149.097 64.2 148.649 64.064 148.137 63.936C147.625 63.808 147.145 63.744 146.697 63.744C145.833 63.744 145.121 63.928 144.561 64.296C144.001 64.664 143.585 65.208 143.313 65.928C143.041 66.648 142.905 67.544 142.905 68.616C142.905 69.64 143.041 70.512 143.313 71.232C143.585 71.952 143.993 72.496 144.537 72.864C145.081 73.232 145.761 73.416 146.577 73.416C147.281 73.416 147.897 73.344 148.425 73.2C148.969 73.056 149.465 72.88 149.913 72.672V74.544C149.481 74.768 149.001 74.936 148.473 75.048C147.961 75.176 147.337 75.24 146.601 75.24ZM158.204 61.92C159.772 61.92 160.932 62.264 161.684 62.952C162.436 63.64 162.812 64.736 162.812 66.24V75H161.276L160.868 73.176H160.772C160.404 73.64 160.02 74.032 159.62 74.352C159.236 74.656 158.788 74.88 158.276 75.024C157.78 75.168 157.172 75.24 156.452 75.24C155.684 75.24 154.988 75.104 154.364 74.832C153.756 74.56 153.276 74.144 152.924 73.584C152.572 73.008 152.396 72.288 152.396 71.424C152.396 70.144 152.9 69.16 153.908 68.472C154.916 67.768 156.468 67.384 158.564 67.32L160.748 67.248V66.48C160.748 65.408 160.516 64.664 160.052 64.248C159.588 63.832 158.932 63.624 158.084 63.624C157.412 63.624 156.772 63.728 156.164 63.936C155.556 64.128 154.988 64.352 154.46 64.608L153.812 63.024C154.372 62.72 155.036 62.464 155.804 62.256C156.572 62.032 157.372 61.92 158.204 61.92ZM158.828 68.784C157.228 68.848 156.116 69.104 155.492 69.552C154.884 70 154.58 70.632 154.58 71.448C154.58 72.168 154.796 72.696 155.228 73.032C155.676 73.368 156.244 73.536 156.932 73.536C158.02 73.536 158.924 73.24 159.644 72.648C160.364 72.04 160.724 71.112 160.724 69.864V68.712L158.828 68.784ZM176.025 63.912H171.825V75H169.737V63.912H165.585V62.136H176.025V63.912ZM184.847 67.416C185.967 67.416 186.895 67.552 187.631 67.824C188.367 68.096 188.919 68.504 189.287 69.048C189.671 69.576 189.863 70.248 189.863 71.064C189.863 71.864 189.679 72.56 189.311 73.152C188.959 73.744 188.407 74.2 187.655 74.52C186.903 74.84 185.935 75 184.751 75H178.919V62.136H181.031V67.416H184.847ZM187.751 71.184C187.751 70.4 187.471 69.872 186.911 69.6C186.367 69.312 185.599 69.168 184.607 69.168H181.031V73.296H184.655C185.551 73.296 186.287 73.136 186.863 72.816C187.455 72.496 187.751 71.952 187.751 71.184ZM198.689 75.24C197.553 75.24 196.537 75.008 195.641 74.544C194.761 74.08 194.065 73.36 193.553 72.384C193.057 71.408 192.809 70.16 192.809 68.64C192.809 67.056 193.073 65.768 193.601 64.776C194.129 63.784 194.841 63.056 195.737 62.592C196.649 62.128 197.681 61.896 198.833 61.896C199.489 61.896 200.121 61.968 200.729 62.112C201.337 62.24 201.833 62.4 202.217 62.592L201.569 64.344C201.185 64.2 200.737 64.064 200.225 63.936C199.713 63.808 199.233 63.744 198.785 63.744C197.921 63.744 197.209 63.928 196.649 64.296C196.089 64.664 195.673 65.208 195.401 65.928C195.129 66.648 194.993 67.544 194.993 68.616C194.993 69.64 195.129 70.512 195.401 71.232C195.673 71.952 196.081 72.496 196.625 72.864C197.169 73.232 197.849 73.416 198.665 73.416C199.369 73.416 199.985 73.344 200.513 73.2C201.057 73.056 201.553 72.88 202.001 72.672V74.544C201.569 74.768 201.089 74.936 200.561 75.048C200.049 75.176 199.425 75.24 198.689 75.24ZM206.213 75H203.765L207.437 69.6C206.941 69.472 206.461 69.272 205.997 69C205.533 68.712 205.157 68.32 204.869 67.824C204.581 67.312 204.437 66.68 204.437 65.928C204.437 64.696 204.853 63.76 205.685 63.12C206.517 62.464 207.621 62.136 208.997 62.136H214.757V75H212.645V69.888H209.525L206.213 75ZM206.477 65.952C206.477 66.688 206.749 67.24 207.293 67.608C207.853 67.96 208.629 68.136 209.621 68.136H212.645V63.888H209.213C208.237 63.888 207.533 64.08 207.101 64.464C206.685 64.848 206.477 65.344 206.477 65.952Z" fill="white"/>
<defs>
<filter id="filter0_d_184_52" x="0" y="0" width="310" height="130" filterUnits="userSpaceOnUse" color-interpolation-filters="sRGB">
<feFlood flood-opacity="0" result="BackgroundImageFix"/>
<feColorMatrix in="SourceAlpha" type="matrix" values="0 0 0 0 0 0 0 0 0 0 0 0 0 0 0 0 0 0 127 0" result="hardAlpha"/>
<feOffset/>
<feGaussianBlur stdDeviation="15"/>
<feComposite in2="hardAlpha" operator="out"/>
<feColorMatrix type="matrix" values="0 0 0 0 0.98 0 0 0 0 0 0 0 0 0 1 0 0 0 0.25 0"/>
<feBlend mode="normal" in2="BackgroundImageFix" result="effect1_dropShadow_184_52"/>
<feBlend mode="normal" in="SourceGraphic" in2="effect1_dropShadow_184_52" result="shape"/>
</filter>
<linearGradient id="paint0_linear_184_52" x1="66.1976" y1="65" x2="198.812" y2="85.1744" gradientUnits="userSpaceOnUse">
<stop stop-color="#FF4040"/>
<stop offset="1" stop-color="#A20BD8"/>
</linearGradient>
</defs>
</svg>
