<svg width="310" height="130" viewBox="0 0 310 130" fill="none" xmlns="http://www.w3.org/2000/svg">
<g opacity="0.5" filter="url(#filter0_d_202_25)">
<path d="M30 46C30 37.1634 37.1634 30 46 30H264C272.837 30 280 37.1634 280 46V84C280 92.8366 272.837 100 264 100H46C37.1634 100 30 92.8366 30 84V46Z" fill="url(#paint0_linear_202_25)"/>
</g>
<path d="M105.888 75L100.248 59.976H100.152C100.184 60.296 100.208 60.704 100.224 61.2C100.256 61.696 100.28 62.24 100.296 62.832C100.312 63.408 100.32 64 100.32 64.608V75H98.328V57.864H101.52L106.8 71.904H106.896L112.272 57.864H115.44V75H113.304V64.464C113.304 63.904 113.312 63.352 113.328 62.808C113.344 62.248 113.368 61.728 113.4 61.248C113.432 60.752 113.456 60.336 113.472 60H113.376L107.664 75H105.888ZM125.141 61.896C126.245 61.896 127.189 62.136 127.973 62.616C128.773 63.096 129.381 63.776 129.797 64.656C130.229 65.52 130.445 66.536 130.445 67.704V68.976H121.637C121.669 70.432 122.037 71.544 122.741 72.312C123.461 73.064 124.461 73.44 125.741 73.44C126.557 73.44 127.277 73.368 127.901 73.224C128.541 73.064 129.197 72.84 129.869 72.552V74.4C129.213 74.688 128.565 74.896 127.925 75.024C127.285 75.168 126.525 75.24 125.645 75.24C124.429 75.24 123.349 74.992 122.405 74.496C121.477 74 120.749 73.264 120.221 72.288C119.709 71.296 119.453 70.088 119.453 68.664C119.453 67.256 119.685 66.048 120.149 65.04C120.629 64.032 121.293 63.256 122.141 62.712C123.005 62.168 124.005 61.896 125.141 61.896ZM125.117 63.624C124.109 63.624 123.309 63.952 122.717 64.608C122.141 65.248 121.797 66.144 121.685 67.296H128.237C128.237 66.56 128.125 65.92 127.901 65.376C127.677 64.832 127.333 64.408 126.869 64.104C126.421 63.784 125.837 63.624 125.117 63.624ZM139.24 75.24C138.104 75.24 137.088 75.008 136.192 74.544C135.312 74.08 134.616 73.36 134.104 72.384C133.608 71.408 133.36 70.16 133.36 68.64C133.36 67.056 133.624 65.768 134.152 64.776C134.68 63.784 135.392 63.056 136.288 62.592C137.2 62.128 138.232 61.896 139.384 61.896C140.04 61.896 140.672 61.968 141.28 62.112C141.888 62.24 142.384 62.4 142.768 62.592L142.12 64.344C141.736 64.2 141.288 64.064 140.776 63.936C140.264 63.808 139.784 63.744 139.336 63.744C138.472 63.744 137.76 63.928 137.2 64.296C136.64 64.664 136.224 65.208 135.952 65.928C135.68 66.648 135.544 67.544 135.544 68.616C135.544 69.64 135.68 70.512 135.952 71.232C136.224 71.952 136.632 72.496 137.176 72.864C137.72 73.232 138.4 73.416 139.216 73.416C139.92 73.416 140.536 73.344 141.064 73.2C141.608 73.056 142.104 72.88 142.552 72.672V74.544C142.12 74.768 141.64 74.936 141.112 75.048C140.6 75.176 139.976 75.24 139.24 75.24ZM154.852 63.912H150.652V75H148.564V63.912H144.412V62.136H154.852V63.912ZM166.1 62.136V67.488H173.084V62.136H175.196V75H173.084V69.264H166.1V75H163.988V62.136H166.1ZM184.598 61.896C185.702 61.896 186.646 62.136 187.43 62.616C188.23 63.096 188.838 63.776 189.254 64.656C189.686 65.52 189.902 66.536 189.902 67.704V68.976H181.094C181.126 70.432 181.494 71.544 182.198 72.312C182.918 73.064 183.918 73.44 185.198 73.44C186.014 73.44 186.734 73.368 187.358 73.224C187.998 73.064 188.654 72.84 189.326 72.552V74.4C188.67 74.688 188.022 74.896 187.382 75.024C186.742 75.168 185.982 75.24 185.102 75.24C183.886 75.24 182.806 74.992 181.862 74.496C180.934 74 180.206 73.264 179.678 72.288C179.166 71.296 178.91 70.088 178.91 68.664C178.91 67.256 179.142 66.048 179.606 65.04C180.086 64.032 180.75 63.256 181.598 62.712C182.462 62.168 183.462 61.896 184.598 61.896ZM184.574 63.624C183.566 63.624 182.766 63.952 182.174 64.608C181.598 65.248 181.254 66.144 181.142 67.296H187.694C187.694 66.56 187.582 65.92 187.358 65.376C187.134 64.832 186.79 64.408 186.326 64.104C185.878 63.784 185.294 63.624 184.574 63.624ZM202.417 63.912H198.217V75H196.129V63.912H191.977V62.136H202.417V63.912Z" fill="white"/>
<defs>
<filter id="filter0_d_202_25" x="0" y="0" width="310" height="130" filterUnits="userSpaceOnUse" color-interpolation-filters="sRGB">
<feFlood flood-opacity="0" result="BackgroundImageFix"/>
<feColorMatrix in="SourceAlpha" type="matrix" values="0 0 0 0 0 0 0 0 0 0 0 0 0 0 0 0 0 0 127 0" result="hardAlpha"/>
<feOffset/>
<feGaussianBlur stdDeviation="15"/>
<feComposite in2="hardAlpha" operator="out"/>
<feColorMatrix type="matrix" values="0 0 0 0 0.98 0 0 0 0 0 0 0 0 0 1 0 0 0 0.25 0"/>
<feBlend mode="normal" in2="BackgroundImageFix" result="effect1_dropShadow_202_25"/>
<feBlend mode="normal" in="SourceGraphic" in2="effect1_dropShadow_202_25" result="shape"/>
</filter>
<linearGradient id="paint0_linear_202_25" x1="66.1976" y1="65" x2="198.812" y2="85.1744" gradientUnits="userSpaceOnUse">
<stop stop-color="#FF4040"/>
<stop offset="1" stop-color="#A20BD8"/>
</linearGradient>
</defs>
</svg>
