<svg width="177" height="37" viewBox="0 0 177 37" fill="none" xmlns="http://www.w3.org/2000/svg">
<path d="M13.032 5.068H0.72V1.54H18.108L8.82 28H4.212L13.032 5.068ZM39.4675 16.876C40.5955 15.364 41.5315 13.96 42.2755 12.664C43.0435 11.368 43.4275 10.168 43.4275 9.064C43.4275 7.72 43.0675 6.7 42.3475 6.004C41.6515 5.284 40.5955 4.924 39.1795 4.924C37.8835 4.924 36.8395 5.284 36.0475 6.004C35.2555 6.724 34.5955 7.6 34.0675 8.632L30.7195 6.832C31.5595 5.224 32.6635 3.868 34.0315 2.764C35.3995 1.66 37.1515 1.108 39.2875 1.108C41.9515 1.108 43.9915 1.804 45.4075 3.196C46.8235 4.564 47.5315 6.364 47.5315 8.596C47.5315 11.5 46.0915 14.716 43.2115 18.244L38.3155 24.436H48.5755V28H30.5755L39.4675 16.876ZM62.957 28.54C59.645 28.54 57.209 27.268 55.649 24.724C54.089 22.18 53.309 18.868 53.309 14.788C53.309 10.588 54.065 7.264 55.577 4.816C57.089 2.344 59.549 1.108 62.957 1.108C69.365 1.108 72.569 5.668 72.569 14.788C72.569 18.94 71.789 22.276 70.229 24.796C68.669 27.292 66.245 28.54 62.957 28.54ZM62.957 24.868C64.925 24.868 66.281 23.932 67.025 22.06C67.793 20.164 68.177 17.74 68.177 14.788C68.177 11.692 67.805 9.244 67.061 7.444C66.317 5.644 64.949 4.744 62.957 4.744C60.965 4.744 59.585 5.644 58.817 7.444C58.073 9.244 57.701 11.692 57.701 14.788C57.701 21.508 59.453 24.868 62.957 24.868ZM86.2656 28.54C82.9536 28.54 80.5176 27.268 78.9576 24.724C77.3976 22.18 76.6176 18.868 76.6176 14.788C76.6176 10.588 77.3736 7.264 78.8856 4.816C80.3976 2.344 82.8576 1.108 86.2656 1.108C92.6736 1.108 95.8776 5.668 95.8776 14.788C95.8776 18.94 95.0976 22.276 93.5376 24.796C91.9776 27.292 89.5536 28.54 86.2656 28.54ZM86.2656 24.868C88.2336 24.868 89.5896 23.932 90.3336 22.06C91.1016 20.164 91.4856 17.74 91.4856 14.788C91.4856 11.692 91.1136 9.244 90.3696 7.444C89.6256 5.644 88.2576 4.744 86.2656 4.744C84.2736 4.744 82.8936 5.644 82.1256 7.444C81.3816 9.244 81.0096 11.692 81.0096 14.788C81.0096 21.508 82.7616 24.868 86.2656 24.868ZM118.974 8.344C121.35 8.344 123.258 9.172 124.698 10.828C126.162 12.484 126.894 14.98 126.894 18.316C126.894 20.5 126.558 22.348 125.886 23.86C125.238 25.348 124.314 26.476 123.114 27.244C121.938 27.988 120.546 28.36 118.938 28.36C117.954 28.36 117.078 28.228 116.31 27.964C115.542 27.7 114.882 27.364 114.33 26.956C113.802 26.524 113.346 26.056 112.962 25.552H112.746C112.794 25.96 112.842 26.476 112.89 27.1C112.938 27.724 112.962 28.264 112.962 28.72V36.64H109.794V8.704H112.386L112.818 11.332H112.962C113.346 10.78 113.802 10.276 114.33 9.82C114.882 9.364 115.53 9.004 116.274 8.74C117.042 8.476 117.942 8.344 118.974 8.344ZM118.398 11.008C117.102 11.008 116.058 11.26 115.266 11.764C114.474 12.244 113.898 12.976 113.538 13.96C113.178 14.944 112.986 16.192 112.962 17.704V18.316C112.962 19.9 113.13 21.244 113.466 22.348C113.802 23.452 114.366 24.292 115.158 24.868C115.974 25.444 117.078 25.732 118.47 25.732C119.646 25.732 120.606 25.408 121.35 24.76C122.118 24.112 122.682 23.236 123.042 22.132C123.426 21.004 123.618 19.72 123.618 18.28C123.618 16.072 123.186 14.308 122.322 12.988C121.482 11.668 120.174 11.008 118.398 11.008ZM128.567 8.704H131.951L136.127 19.684C136.367 20.332 136.583 20.956 136.775 21.556C136.991 22.156 137.183 22.744 137.351 23.32C137.519 23.872 137.651 24.412 137.747 24.94H137.891C138.035 24.34 138.263 23.56 138.575 22.6C138.887 21.616 139.211 20.632 139.547 19.648L143.471 8.704H146.891L138.575 30.664C138.119 31.864 137.579 32.908 136.955 33.796C136.355 34.708 135.611 35.404 134.723 35.884C133.859 36.388 132.803 36.64 131.555 36.64C130.979 36.64 130.475 36.604 130.043 36.532C129.611 36.484 129.239 36.424 128.927 36.352V33.832C129.191 33.88 129.503 33.928 129.863 33.976C130.247 34.024 130.643 34.048 131.051 34.048C131.795 34.048 132.431 33.904 132.959 33.616C133.511 33.352 133.979 32.956 134.363 32.428C134.747 31.924 135.071 31.324 135.335 30.628L136.343 28.072L128.567 8.704ZM148.935 16.408C148.935 13.6 149.211 11.212 149.763 9.244C150.339 7.252 151.215 5.668 152.391 4.492C153.591 3.292 155.127 2.488 156.999 2.08C158.559 1.744 160.083 1.444 161.571 1.18C163.059 0.915998 164.451 0.675998 165.747 0.459998L166.287 3.232C165.663 3.328 164.967 3.448 164.199 3.592C163.431 3.712 162.651 3.844 161.859 3.988C161.067 4.108 160.299 4.24 159.555 4.384C158.835 4.504 158.199 4.624 157.647 4.744C156.855 4.912 156.147 5.2 155.523 5.608C154.899 5.992 154.359 6.52 153.903 7.192C153.471 7.864 153.123 8.692 152.859 9.676C152.595 10.66 152.439 11.824 152.391 13.168H152.607C152.943 12.712 153.399 12.244 153.975 11.764C154.575 11.284 155.283 10.876 156.099 10.54C156.939 10.204 157.887 10.036 158.943 10.036C160.623 10.036 162.015 10.408 163.119 11.152C164.247 11.872 165.087 12.88 165.639 14.176C166.215 15.472 166.503 16.984 166.503 18.712C166.503 20.848 166.131 22.636 165.387 24.076C164.643 25.516 163.611 26.596 162.291 27.316C160.971 28.012 159.435 28.36 157.683 28.36C156.363 28.36 155.163 28.108 154.083 27.604C153.003 27.076 152.079 26.308 151.311 25.3C150.543 24.292 149.955 23.044 149.547 21.556C149.139 20.068 148.935 18.352 148.935 16.408ZM157.935 25.732C158.991 25.732 159.903 25.516 160.671 25.084C161.463 24.652 162.075 23.944 162.507 22.96C162.939 21.976 163.155 20.668 163.155 19.036C163.155 17.068 162.783 15.52 162.039 14.392C161.319 13.24 160.119 12.664 158.439 12.664C157.383 12.664 156.423 12.904 155.559 13.384C154.695 13.84 153.975 14.368 153.399 14.968C152.823 15.568 152.415 16.072 152.175 16.48C152.175 17.656 152.259 18.796 152.427 19.9C152.595 21.004 152.883 22 153.291 22.888C153.723 23.752 154.311 24.448 155.055 24.976C155.823 25.48 156.783 25.732 157.935 25.732ZM173.654 28.36C172.934 28.36 172.322 28.12 171.818 27.64C171.314 27.136 171.062 26.524 171.062 25.804C171.062 25.06 171.302 24.448 171.782 23.968C172.286 23.464 172.91 23.212 173.654 23.212C174.398 23.212 175.01 23.464 175.49 23.968C175.994 24.448 176.246 25.06 176.246 25.804C176.246 26.524 175.994 27.136 175.49 27.64C175.01 28.12 174.398 28.36 173.654 28.36Z" fill="url(#paint0_linear_73_65)"/>
<defs>
<linearGradient id="paint0_linear_73_65" x1="25.9175" y1="13" x2="120.859" y2="27.478" gradientUnits="userSpaceOnUse">
<stop stop-color="#FF4040"/>
<stop offset="1" stop-color="#A20BD8"/>
</linearGradient>
</defs>
</svg>
