<svg width="203" height="37" viewBox="0 0 203 37" fill="none" xmlns="http://www.w3.org/2000/svg">
<path d="M12.716 21.376H0.62L8.216 0.639998L11.96 2.044L6.236 17.596H12.716L12.932 11.584H16.928V17.596H20.6V21.376H16.928V28H12.716V21.376ZM34.2187 28.54C30.9067 28.54 28.4707 27.268 26.9107 24.724C25.3507 22.18 24.5707 18.868 24.5707 14.788C24.5707 10.588 25.3267 7.264 26.8387 4.816C28.3507 2.344 30.8107 1.108 34.2187 1.108C40.6267 1.108 43.8307 5.668 43.8307 14.788C43.8307 18.94 43.0507 22.276 41.4907 24.796C39.9307 27.292 37.5067 28.54 34.2187 28.54ZM34.2187 24.868C36.1867 24.868 37.5427 23.932 38.2867 22.06C39.0547 20.164 39.4387 17.74 39.4387 14.788C39.4387 11.692 39.0667 9.244 38.3227 7.444C37.5787 5.644 36.2107 4.744 34.2187 4.744C32.2267 4.744 30.8467 5.644 30.0787 7.444C29.3347 9.244 28.9627 11.692 28.9627 14.788C28.9627 21.508 30.7147 24.868 34.2187 24.868ZM66.3515 28.54C63.0395 28.54 60.6035 27.268 59.0435 24.724C57.4835 22.18 56.7035 18.868 56.7035 14.788C56.7035 10.588 57.4595 7.264 58.9715 4.816C60.4835 2.344 62.9435 1.108 66.3515 1.108C72.7595 1.108 75.9635 5.668 75.9635 14.788C75.9635 18.94 75.1835 22.276 73.6235 24.796C72.0635 27.292 69.6395 28.54 66.3515 28.54ZM66.3515 24.868C68.3195 24.868 69.6755 23.932 70.4195 22.06C71.1875 20.164 71.5715 17.74 71.5715 14.788C71.5715 11.692 71.1995 9.244 70.4555 7.444C69.7115 5.644 68.3435 4.744 66.3515 4.744C64.3595 4.744 62.9795 5.644 62.2115 7.444C61.4675 9.244 61.0955 11.692 61.0955 14.788C61.0955 21.508 62.8475 24.868 66.3515 24.868ZM89.6601 28.54C86.3481 28.54 83.9121 27.268 82.3521 24.724C80.7921 22.18 80.0121 18.868 80.0121 14.788C80.0121 10.588 80.7681 7.264 82.2801 4.816C83.7921 2.344 86.2521 1.108 89.6601 1.108C96.0681 1.108 99.2721 5.668 99.2721 14.788C99.2721 18.94 98.4921 22.276 96.9321 24.796C95.3721 27.292 92.9481 28.54 89.6601 28.54ZM89.6601 24.868C91.6281 24.868 92.9841 23.932 93.7281 22.06C94.4961 20.164 94.8801 17.74 94.8801 14.788C94.8801 11.692 94.5081 9.244 93.7641 7.444C93.0201 5.644 91.6521 4.744 89.6601 4.744C87.6681 4.744 86.2881 5.644 85.5201 7.444C84.7761 9.244 84.4041 11.692 84.4041 14.788C84.4041 21.508 86.1561 24.868 89.6601 24.868ZM112.969 28.54C109.657 28.54 107.221 27.268 105.661 24.724C104.101 22.18 103.321 18.868 103.321 14.788C103.321 10.588 104.077 7.264 105.589 4.816C107.101 2.344 109.561 1.108 112.969 1.108C119.377 1.108 122.581 5.668 122.581 14.788C122.581 18.94 121.801 22.276 120.241 24.796C118.681 27.292 116.257 28.54 112.969 28.54ZM112.969 24.868C114.937 24.868 116.293 23.932 117.037 22.06C117.805 20.164 118.189 17.74 118.189 14.788C118.189 11.692 117.817 9.244 117.073 7.444C116.329 5.644 114.961 4.744 112.969 4.744C110.977 4.744 109.597 5.644 108.829 7.444C108.085 9.244 107.713 11.692 107.713 14.788C107.713 21.508 109.465 24.868 112.969 24.868ZM145.678 8.344C148.054 8.344 149.962 9.172 151.402 10.828C152.866 12.484 153.598 14.98 153.598 18.316C153.598 20.5 153.262 22.348 152.59 23.86C151.941 25.348 151.018 26.476 149.818 27.244C148.642 27.988 147.25 28.36 145.642 28.36C144.658 28.36 143.782 28.228 143.014 27.964C142.246 27.7 141.586 27.364 141.034 26.956C140.506 26.524 140.05 26.056 139.666 25.552H139.45C139.498 25.96 139.546 26.476 139.594 27.1C139.642 27.724 139.666 28.264 139.666 28.72V36.64H136.498V8.704H139.09L139.522 11.332H139.666C140.05 10.78 140.506 10.276 141.034 9.82C141.586 9.364 142.234 9.004 142.978 8.74C143.746 8.476 144.646 8.344 145.678 8.344ZM145.102 11.008C143.806 11.008 142.762 11.26 141.97 11.764C141.178 12.244 140.602 12.976 140.242 13.96C139.882 14.944 139.69 16.192 139.666 17.704V18.316C139.666 19.9 139.834 21.244 140.17 22.348C140.506 23.452 141.07 24.292 141.862 24.868C142.678 25.444 143.782 25.732 145.174 25.732C146.35 25.732 147.31 25.408 148.054 24.76C148.822 24.112 149.386 23.236 149.746 22.132C150.13 21.004 150.322 19.72 150.322 18.28C150.322 16.072 149.89 14.308 149.026 12.988C148.186 11.668 146.878 11.008 145.102 11.008ZM155.27 8.704H158.654L162.83 19.684C163.07 20.332 163.286 20.956 163.478 21.556C163.694 22.156 163.886 22.744 164.054 23.32C164.222 23.872 164.354 24.412 164.45 24.94H164.594C164.738 24.34 164.966 23.56 165.278 22.6C165.59 21.616 165.914 20.632 166.25 19.648L170.174 8.704H173.594L165.278 30.664C164.822 31.864 164.282 32.908 163.658 33.796C163.058 34.708 162.314 35.404 161.426 35.884C160.562 36.388 159.506 36.64 158.258 36.64C157.682 36.64 157.178 36.604 156.746 36.532C156.314 36.484 155.942 36.424 155.63 36.352V33.832C155.894 33.88 156.206 33.928 156.566 33.976C156.95 34.024 157.346 34.048 157.754 34.048C158.498 34.048 159.134 33.904 159.662 33.616C160.214 33.352 160.682 32.956 161.066 32.428C161.45 31.924 161.774 31.324 162.038 30.628L163.046 28.072L155.27 8.704ZM175.638 16.408C175.638 13.6 175.914 11.212 176.466 9.244C177.042 7.252 177.918 5.668 179.094 4.492C180.294 3.292 181.83 2.488 183.702 2.08C185.262 1.744 186.786 1.444 188.274 1.18C189.762 0.915998 191.154 0.675998 192.45 0.459998L192.99 3.232C192.366 3.328 191.67 3.448 190.902 3.592C190.134 3.712 189.354 3.844 188.562 3.988C187.77 4.108 187.002 4.24 186.258 4.384C185.538 4.504 184.902 4.624 184.35 4.744C183.558 4.912 182.85 5.2 182.226 5.608C181.602 5.992 181.062 6.52 180.606 7.192C180.174 7.864 179.826 8.692 179.562 9.676C179.298 10.66 179.142 11.824 179.094 13.168H179.31C179.646 12.712 180.102 12.244 180.678 11.764C181.278 11.284 181.986 10.876 182.802 10.54C183.642 10.204 184.59 10.036 185.646 10.036C187.326 10.036 188.718 10.408 189.822 11.152C190.95 11.872 191.79 12.88 192.342 14.176C192.918 15.472 193.206 16.984 193.206 18.712C193.206 20.848 192.834 22.636 192.09 24.076C191.346 25.516 190.314 26.596 188.994 27.316C187.674 28.012 186.138 28.36 184.386 28.36C183.066 28.36 181.866 28.108 180.786 27.604C179.706 27.076 178.782 26.308 178.014 25.3C177.246 24.292 176.658 23.044 176.25 21.556C175.842 20.068 175.638 18.352 175.638 16.408ZM184.638 25.732C185.694 25.732 186.606 25.516 187.374 25.084C188.166 24.652 188.778 23.944 189.21 22.96C189.642 21.976 189.858 20.668 189.858 19.036C189.858 17.068 189.486 15.52 188.742 14.392C188.022 13.24 186.822 12.664 185.142 12.664C184.086 12.664 183.126 12.904 182.262 13.384C181.398 13.84 180.678 14.368 180.102 14.968C179.526 15.568 179.118 16.072 178.878 16.48C178.878 17.656 178.962 18.796 179.13 19.9C179.298 21.004 179.586 22 179.994 22.888C180.426 23.752 181.014 24.448 181.758 24.976C182.526 25.48 183.486 25.732 184.638 25.732ZM200.357 28.36C199.637 28.36 199.025 28.12 198.521 27.64C198.017 27.136 197.765 26.524 197.765 25.804C197.765 25.06 198.005 24.448 198.485 23.968C198.989 23.464 199.613 23.212 200.357 23.212C201.101 23.212 201.713 23.464 202.193 23.968C202.697 24.448 202.949 25.06 202.949 25.804C202.949 26.524 202.697 27.136 202.193 27.64C201.713 28.12 201.101 28.36 200.357 28.36Z" fill="url(#paint0_linear_202_21)"/>
<defs>
<linearGradient id="paint0_linear_202_21" x1="28.9716" y1="13" x2="137.929" y2="32.2143" gradientUnits="userSpaceOnUse">
<stop stop-color="#FF4040"/>
<stop offset="1" stop-color="#A20BD8"/>
</linearGradient>
</defs>
</svg>
